<svg width="20" height="18" viewBox="0 0 20 18" fill="none" xmlns="http://www.w3.org/2000/svg">
<path fill-rule="evenodd" clip-rule="evenodd" d="M11.9186 0.424602C12.244 0.108466 12.7717 0.108466 13.0971 0.424602L19.7637 6.90079C20.0892 7.21694 20.0892 7.72951 19.7637 8.04563L15.0078 12.6657V14.7589C15.0078 16.1002 13.8886 17.1875 12.5078 17.1875H4.17448C1.8733 17.1875 0.0078125 15.3753 0.0078125 13.1399V5.85417C0.0078125 4.06582 1.5002 2.61607 3.34115 2.61607H9.66266L11.9186 0.424602ZM7.99598 4.23512H3.34115C2.42067 4.23512 1.67448 4.95999 1.67448 5.85417V13.1399C1.67448 14.4812 2.79377 15.5685 4.17448 15.5685H12.5078C12.9681 15.5685 13.3412 15.206 13.3412 14.7589V12.3309V12.3298V8.28274C13.3412 7.83564 12.9681 7.47322 12.5078 7.47322H6.67506H6.67391H4.17448C3.25401 7.47322 2.50782 6.74834 2.50782 5.85417V5.44941C2.50782 5.00232 2.88092 4.63988 3.34115 4.63988C3.80138 4.63988 4.17448 5.00232 4.17448 5.44941V5.85417H6.32931L7.99598 4.23512ZM8.68632 5.85417H12.5078C13.8886 5.85417 15.0078 6.94148 15.0078 8.28274V10.376L17.996 7.47322L12.5078 2.14186L10.5971 3.99802L8.68632 5.85417Z" fill="white"/>
</svg>
