<svg width="74" height="50" viewBox="0 0 74 50" fill="none" xmlns="http://www.w3.org/2000/svg">
<g clip-path="url(#clip0_131_2101)">
<path d="M59.1747 41.5272C59.0361 41.2831 58.8975 41.04 58.7589 40.7969C57.8922 39.2756 56.4412 38.1285 54.8783 37.783C38.4421 34.1295 21.1242 35.7105 5.4502 42.5262C2.97043 43.6019 1.00986 42.5368 1.00879 39.96V20.6752C1.00879 18.1037 2.97043 14.996 5.4502 13.9203C23.7361 5.96923 44.2598 5.14193 63.0106 11.4394C65.5532 12.2902 67.5746 15.2177 67.5757 17.7881V41.7863C67.5916 46.3247 61.7696 45.9708 59.1758 41.5261L59.1747 41.5272Z" fill="#FF3599"/>
<path d="M67.5562 43.0362C65.4357 42.1758 63.4953 40.4487 62.2597 38.2046C62.1222 37.9551 61.9857 37.7056 61.8482 37.4572C61.3418 36.5404 60.4985 35.8282 59.5891 35.5681C43.3459 30.9092 25.9779 31.4838 10.0118 37.2931C6.44992 38.583 3.64071 36.9796 3.63965 33.3474V14.0636C3.63965 10.4409 6.44992 6.14025 10.0118 4.85026C28.6389 -1.92701 49.1732 -1.58052 67.6052 5.89078C71.1298 7.31297 73.9016 11.7213 73.9016 15.344V39.3421C73.9016 41.2238 73.2055 42.5746 71.9261 43.1972C70.7662 43.7622 69.1766 43.6897 67.5572 43.0362H67.5562Z" fill="#FF3599"/>
<path d="M63.8287 37.6576C63.6922 37.4049 63.5558 37.1533 63.4193 36.9017C62.5653 35.3271 61.1336 34.0904 59.5888 33.649C43.3455 28.9901 25.9775 29.5648 10.0114 35.374C7.48582 36.2909 5.48047 35.0968 5.48047 32.52V13.2362C5.48047 10.6648 7.48582 7.68606 10.0114 6.7692C28.6385 -0.00806189 49.1729 0.338424 67.6048 7.80973C70.1038 8.8204 72.0846 11.8759 72.0846 14.4473C72.0846 22.4464 72.0846 30.4464 72.0846 38.4455C72.1038 42.9839 66.3905 42.2621 63.8298 37.6587L63.8287 37.6576Z" fill="#FF3599"/>
<path d="M65.386 44.9295C67.2496 44.3858 69.0939 43.9135 70.9148 43.5137C70.966 42.1683 71.0172 40.8229 71.0673 39.4774C68.3306 38.2152 65.5395 37.1149 62.709 36.1768C63.6056 39.0787 64.4979 41.9956 65.3849 44.9295H65.386Z" fill="#FF3599"/>
<path d="M3.96825 23.3744C5.78917 21.3029 7.63354 19.3029 9.4971 17.3754C7.94377 14.7272 6.40538 12.1291 4.88191 9.58105C3.64948 12.7357 2.42879 15.9233 1.21875 19.143C2.12921 20.5353 3.04606 21.9458 3.96825 23.3744Z" fill="#FF3599"/>
<path d="M63.8287 37.6576C63.6922 37.4049 63.5558 37.1533 63.4193 36.9017C62.5653 35.3271 61.1336 34.0904 59.5888 33.649C43.3455 28.9901 25.9775 29.5648 10.0114 35.374C7.48582 36.2909 5.48047 35.0968 5.48047 32.52V13.2362C5.48047 10.6648 7.48582 7.68606 10.0114 6.7692C28.6385 -0.00806189 49.1729 0.338424 67.6048 7.80973C70.1038 8.8204 72.0846 11.8759 72.0846 14.4473C72.0846 22.4464 72.0846 30.4464 72.0846 38.4455C72.1038 42.9839 66.3905 42.2621 63.8298 37.6587L63.8287 37.6576Z" fill="black"/>
<path d="M26.3789 10.5158C27.1987 10.4017 28.0196 10.3004 28.8416 10.2119C27.6401 14.5478 26.4407 18.9114 25.2446 23.3016C24.4716 23.421 23.6998 23.5511 22.93 23.6929C22.5313 22.1001 22.1326 20.5105 21.7339 18.9242C21.3298 20.6705 20.9268 22.4199 20.5238 24.1726C19.7626 24.3368 19.0035 24.5117 18.2466 24.6982C17.0611 20.7845 15.8809 16.8975 14.7061 13.0382C15.511 12.8004 16.3191 12.5755 17.1293 12.3633C17.8959 14.9689 18.6635 17.5862 19.4343 20.2142C19.7861 17.3826 20.1379 14.5531 20.4908 11.7269C21.2243 11.568 21.9588 11.4209 22.6944 11.2823C23.1326 13.9732 23.5718 16.6672 24.0111 19.3655C24.8 16.4039 25.59 13.4529 26.381 10.5147L26.3789 10.5158Z" fill="white"/>
<path d="M34.9099 9.78856C35.7126 9.76297 36.5154 9.75018 37.3182 9.74805C37.3182 13.9539 37.3182 18.1607 37.3182 22.3665C36.5154 22.3676 35.7126 22.3815 34.9099 22.407V17.2599C33.8054 17.295 32.7019 17.3526 31.5996 17.4336V22.5808C30.7925 22.6395 29.9866 22.7109 29.1816 22.794C29.1816 18.5882 29.1816 14.3814 29.1816 10.1756C29.9866 10.0924 30.7936 10.021 31.5996 9.96233V15.2918C32.7019 15.2108 33.8054 15.1532 34.9099 15.118V9.78856Z" fill="white"/>
<path d="M40.2735 13.2512C40.2735 13.4954 40.3354 13.7097 40.4612 13.8973C40.5859 14.0849 40.7544 14.2544 40.9644 14.408C41.1755 14.5615 41.4164 14.7001 41.6893 14.8248C41.9623 14.9495 42.2469 15.0775 42.5422 15.2065C42.9623 15.3888 43.3866 15.5871 43.812 15.8035C44.2384 16.0199 44.6233 16.2918 44.9698 16.618C45.3152 16.9442 45.5998 17.3323 45.8205 17.7822C46.0412 18.2321 46.1521 18.7726 46.1521 19.4027C46.1403 19.9443 46.0327 20.4304 45.829 20.8622C45.6243 21.295 45.3354 21.6522 44.9612 21.9379C44.587 22.2236 44.1414 22.4336 43.6243 22.5712C43.1073 22.7087 42.5252 22.7567 41.8759 22.7215C41.2384 22.6863 40.6669 22.5712 40.1605 22.3707C39.6541 22.1714 39.2266 21.907 38.8801 21.5744C38.5326 21.2417 38.265 20.8494 38.0774 20.3931C37.8897 19.9379 37.7959 19.44 37.7959 18.8974V18.2502C38.604 18.2534 39.4132 18.2694 40.2213 18.2971V18.9112C40.2448 19.3878 40.4292 19.7598 40.7767 20.0285C41.1243 20.2972 41.5081 20.4432 41.9292 20.4667C41.9463 20.4667 41.9633 20.4688 41.9804 20.4699C42.1957 20.4816 42.4068 20.4592 42.6115 20.4006C42.8162 20.3419 43.0007 20.2598 43.1659 20.1554C43.3301 20.0509 43.4676 19.9176 43.5753 19.7534C43.684 19.5903 43.7373 19.4091 43.7373 19.2097C43.7256 18.9208 43.6542 18.6692 43.5241 18.4549C43.393 18.2406 43.2171 18.0445 42.9953 17.8686C42.7736 17.6926 42.5198 17.5327 42.2362 17.3877C41.9516 17.2438 41.6563 17.1031 41.3492 16.9666C40.9399 16.7918 40.5294 16.6063 40.12 16.4101C39.7106 16.214 39.3375 15.9751 39.0017 15.6916C38.6658 15.409 38.3929 15.07 38.1818 14.6756C37.9718 14.2811 37.8599 13.7907 37.8492 13.2043V13.1382C37.8492 12.6627 37.9377 12.2064 38.1136 11.7704C38.2895 11.3344 38.5496 10.9527 38.8908 10.6265C39.232 10.3002 39.6531 10.0444 40.1541 9.86207C40.6541 9.67976 41.2298 9.60407 41.878 9.63925C42.458 9.67123 42.9836 9.7981 43.4559 10.0156C43.9271 10.2331 44.3312 10.5231 44.6659 10.8791C45.0007 11.2363 45.264 11.6521 45.457 12.1254C45.6499 12.5988 45.7512 13.1126 45.7629 13.6681V14.166C44.9634 14.0828 44.1627 14.0114 43.3621 13.9527V13.538C43.3621 13.2726 43.3162 13.0391 43.2256 12.8386C43.135 12.6382 43.0177 12.4698 42.8759 12.3322C42.7341 12.1958 42.5689 12.0881 42.3812 12.0103C42.1936 11.9325 42.0028 11.8877 41.8098 11.8781C41.6275 11.8791 41.4431 11.9058 41.2554 11.958C41.0678 12.0103 40.9025 12.0945 40.7608 12.2096C40.6179 12.3258 40.5017 12.4676 40.4111 12.6361C40.3194 12.8045 40.2746 12.9996 40.2746 13.2203V13.2534L40.2735 13.2512Z" fill="white"/>
<path d="M50.3433 10.7882C50.9179 10.882 51.4478 11.0654 51.9307 11.3362C52.4137 11.607 52.8348 11.946 53.1941 12.3501C53.5533 12.7541 53.8359 13.2083 54.0427 13.7115C54.2495 14.2147 54.3583 14.7445 54.37 15.3011V15.7158C54.37 16.2808 54.2634 16.7744 54.0512 17.1998C53.838 17.6252 53.5491 17.9663 53.1855 18.2254C52.8209 18.4845 52.3945 18.6625 51.9051 18.7606C51.4158 18.8597 50.8955 18.8629 50.3433 18.7734C49.8475 18.6923 49.3507 18.6167 48.8529 18.5452V23.1775C48.0501 23.0623 47.2473 22.96 46.4424 22.8694V10.252C47.7452 10.3991 49.0458 10.5771 50.3422 10.7882H50.3433ZM52.0149 14.897C52.0149 14.4215 51.8604 14.0047 51.5512 13.6507C51.2409 13.2968 50.839 13.0771 50.3433 12.9961C49.8475 12.9151 49.3507 12.8394 48.8529 12.768V16.3544C49.3497 16.4258 49.8465 16.5015 50.3433 16.5825C50.839 16.6635 51.242 16.5814 51.5512 16.332C51.8604 16.0825 52.0149 15.7222 52.0149 15.2456V14.897Z" fill="white"/>
<path d="M62.4961 25.1424C62.4961 25.3194 62.5142 25.5198 62.5537 25.7426C62.5921 25.9654 62.6443 26.1989 62.7093 26.442C61.9705 26.1968 61.2296 25.9633 60.4854 25.7405C60.3639 25.5049 60.2818 25.2757 60.237 25.0528C60.1933 24.83 60.1699 24.6179 60.1709 24.4185V22.2596C60.1709 21.9057 60.0835 21.589 59.9065 21.3108C59.7296 21.0325 59.3873 20.8033 58.8788 20.6285C58.8234 20.6242 58.7679 20.6146 58.7125 20.5997C58.6571 20.5848 58.6016 20.5698 58.5462 20.5539C58.059 20.4206 57.5707 20.2927 57.0813 20.1701V24.8023C56.2914 24.6029 55.4992 24.4164 54.7061 24.2415V11.623C55.9918 11.9056 57.2732 12.2211 58.5472 12.5676C59.1123 12.7211 59.6315 12.961 60.1059 13.283C60.5803 13.6049 60.9929 13.9887 61.3447 14.4301C61.6965 14.8715 61.9727 15.3566 62.1763 15.8811C62.3788 16.4067 62.4855 16.9483 62.4972 17.5048V17.9195C62.4972 18.4952 62.3906 18.9835 62.1763 19.3843C61.962 19.7852 61.6688 20.0986 61.2957 20.3246C61.527 20.5187 61.7211 20.7298 61.881 20.9568C62.0398 21.185 62.1635 21.4078 62.2509 21.6242C62.3383 21.8406 62.4012 22.0443 62.4396 22.234C62.478 22.4238 62.4983 22.5795 62.4972 22.701V25.1413L62.4961 25.1424ZM60.188 16.8513C60.188 16.3758 60.0366 15.9429 59.7328 15.5559C59.4289 15.1689 59.0334 14.9077 58.5462 14.7745C58.059 14.6412 57.5707 14.5133 57.0813 14.3907V18.0762C57.5707 18.1999 58.059 18.3278 58.5462 18.46C59.0334 18.5933 59.4289 18.5368 59.7328 18.2862C60.0366 18.0368 60.188 17.6754 60.188 17.1988C60.188 17.0826 60.188 16.9664 60.188 16.8502V16.8513Z" fill="white"/>
</g>
<defs>
<clipPath id="clip0_131_2101">
<rect width="72.8921" height="49.3268" fill="white" transform="translate(0.286133 0.0146484)"/>
</clipPath>
</defs>
</svg>
