<svg width="64" height="49" viewBox="0 0 64 49" fill="none" xmlns="http://www.w3.org/2000/svg">
<path d="M30.0288 4.71302C27.7536 5.36 25.9968 6.78337 24.9312 8.82496C24.2687 10.1189 24.0527 10.996 24.0527 12.4912C24.0527 15.8699 26.112 18.7598 29.3952 19.9675C30.7489 20.4851 32.9809 20.5138 34.2769 20.0537C34.7521 19.8812 35.2561 19.6943 35.4002 19.6512C35.6162 19.5793 35.645 19.7087 35.645 20.9883C35.6306 23.1305 35.0545 24.1657 33.3265 25.0858C31.6849 25.9629 31.4257 27.6738 32.7937 28.7233C34.6081 30.0892 38.4242 27.4725 39.5618 24.0794C39.8786 23.1449 39.893 22.958 39.9362 14.6478C39.965 6.56771 39.965 6.13638 39.7058 5.66193C39.317 4.95743 38.6114 4.51173 37.877 4.51173C37.2002 4.51173 36.365 4.81366 36.077 5.14434C35.8754 5.40314 35.3425 5.44627 35.1409 5.24498C35.0545 5.1731 34.5793 4.97181 34.0753 4.81366C33.0097 4.4686 31.0945 4.42547 30.0288 4.71302ZM33.5425 8.39364C35.7746 9.22753 36.9122 11.7148 36.077 13.9146C35.717 14.8779 34.7521 15.9418 33.9025 16.3444C33.2689 16.6319 32.1889 17.6527 32.1889 17.9546C32.1889 18.084 32.1025 18.1272 31.9729 18.084C31.8577 18.0265 31.7569 17.9115 31.7569 17.8109C31.7569 17.5664 30.5905 16.5456 29.9856 16.2581C29.424 15.9849 28.4304 14.9641 28.0704 14.2884C27.8544 13.9002 27.7968 13.4689 27.7968 12.4193C27.7968 10.8666 28.0128 10.3058 28.9776 9.35693C30.1585 8.1636 31.9297 7.80416 33.5425 8.39364Z" fill="#F1F7F6"/>
<path d="M37.0859 0.672903C36.6394 0.902941 36.0778 1.72245 36.0778 2.16815C36.0778 2.98767 36.9994 3.93658 37.7771 3.93658C38.5979 3.93658 39.5339 3.01642 39.5339 2.19691C39.5339 1.72245 38.9867 0.902941 38.5259 0.672903C38.0651 0.442863 37.5467 0.442863 37.0859 0.672903Z" fill="#F1F7F6"/>
<path d="M29.7981 12.1885C29.6252 12.6342 29.8125 12.9218 30.2589 12.9649C30.7773 13.0224 30.9789 12.7061 30.7485 12.2604C30.5613 11.9441 29.9133 11.8866 29.7981 12.1885Z" fill="#F1F7F6"/>
<path d="M31.4837 12.2465C31.2965 12.6059 31.5557 12.9941 31.9733 12.9941C32.1605 12.9941 32.3765 12.8791 32.4629 12.7497C32.6501 12.3903 32.3909 11.9877 31.9733 11.9877C31.7861 11.9877 31.5557 12.1027 31.4837 12.2465Z" fill="#F1F7F6"/>
<path d="M33.198 12.2896C32.9964 12.6635 33.2412 12.9941 33.7164 12.9941C34.134 12.9941 34.3788 12.5916 34.1916 12.2465C34.0044 11.8871 33.3852 11.9158 33.198 12.2896Z" fill="#F1F7F6"/>
<ellipse cx="31.9992" cy="32.1371" rx="5.7804" ry="0.567718" fill="#191E1D"/>
<path d="M2.76082 48.56C2.52749 48.56 2.30415 48.5333 2.09082 48.48C1.87749 48.4267 1.69082 48.3567 1.53082 48.27C1.37082 48.1833 1.24415 48.09 1.15082 47.99C1.05749 47.89 1.01082 47.7967 1.01082 47.71C1.01082 47.6433 1.02082 47.5867 1.04082 47.54C1.06082 47.5 1.09082 47.4567 1.13082 47.41C1.19749 47.3433 1.25082 47.2967 1.29082 47.27C1.33082 47.2433 1.38415 47.23 1.45082 47.23C1.51749 47.23 1.58415 47.2567 1.65082 47.31C1.71749 47.37 1.79749 47.4333 1.89082 47.5C1.99082 47.5733 2.11082 47.6367 2.25082 47.69C2.39749 47.75 2.57749 47.78 2.79082 47.78C3.01082 47.78 3.20749 47.7467 3.38082 47.68C3.55415 47.6133 3.70415 47.5133 3.83082 47.38C3.95749 47.2467 4.05415 47.0833 4.12082 46.89C4.18749 46.7033 4.22082 46.49 4.22082 46.25L4.20082 42.09C4.20749 41.9633 4.24415 41.8733 4.31082 41.82C4.38415 41.7667 4.49749 41.74 4.65082 41.74C4.77749 41.74 4.86749 41.76 4.92082 41.8C4.98082 41.8333 5.01749 41.8833 5.03082 41.95C5.05082 42.01 5.06082 42.0867 5.06082 42.18V46.32C5.06082 46.6733 5.00415 46.9867 4.89082 47.26C4.77749 47.54 4.61749 47.7767 4.41082 47.97C4.20415 48.1633 3.96082 48.31 3.68082 48.41C3.40082 48.51 3.09415 48.56 2.76082 48.56ZM2.73082 46.49C2.41082 46.49 2.11415 46.4333 1.84082 46.32C1.57415 46.2 1.33749 46.0333 1.13082 45.82C0.93082 45.6067 0.774154 45.3567 0.66082 45.07C0.554154 44.7833 0.50082 44.47 0.50082 44.13C0.50082 43.79 0.554154 43.4767 0.66082 43.19C0.774154 42.9033 0.93082 42.6533 1.13082 42.44C1.33082 42.2267 1.56415 42.0633 1.83082 41.95C2.10415 41.83 2.40082 41.77 2.72082 41.77C3.01415 41.77 3.28082 41.8267 3.52082 41.94C3.76082 42.0533 3.96415 42.2167 4.13082 42.43C4.30415 42.6367 4.43415 42.8833 4.52082 43.17C4.60749 43.4567 4.65082 43.7767 4.65082 44.13C4.65082 44.61 4.57415 45.0267 4.42082 45.38C4.26749 45.7333 4.04749 46.0067 3.76082 46.2C3.47415 46.3933 3.13082 46.49 2.73082 46.49ZM2.78082 45.67C3.04749 45.67 3.28749 45.6033 3.50082 45.47C3.71415 45.3367 3.88415 45.1533 4.01082 44.92C4.13749 44.6867 4.20082 44.4167 4.20082 44.11C4.20082 43.81 4.13749 43.5467 4.01082 43.32C3.88415 43.0867 3.71082 42.9067 3.49082 42.78C3.27749 42.6533 3.03415 42.59 2.76082 42.59C2.48749 42.59 2.24415 42.6533 2.03082 42.78C1.81749 42.9067 1.65082 43.0867 1.53082 43.32C1.41749 43.5467 1.36082 43.8133 1.36082 44.12C1.36082 44.4267 1.42082 44.6967 1.54082 44.93C1.66082 45.1567 1.82749 45.3367 2.04082 45.47C2.25415 45.6033 2.50082 45.67 2.78082 45.67ZM10.3486 46.59C10.202 46.59 10.0953 46.56 10.0286 46.5C9.96863 46.44 9.93197 46.3467 9.91863 46.22L9.95863 45.72C9.89197 45.8267 9.78863 45.95 9.64863 46.09C9.50863 46.2233 9.3253 46.3433 9.09863 46.45C8.87197 46.55 8.5953 46.6 8.26863 46.6C7.94863 46.6 7.64863 46.5367 7.36863 46.41C7.0953 46.2833 6.85197 46.1067 6.63863 45.88C6.43197 45.6533 6.26863 45.3933 6.14863 45.1C6.0353 44.8067 5.97863 44.4933 5.97863 44.16C5.97863 43.8333 6.0353 43.5267 6.14863 43.24C6.26863 42.9467 6.4353 42.69 6.64863 42.47C6.86197 42.25 7.1053 42.0767 7.37863 41.95C7.65863 41.8233 7.9553 41.76 8.26863 41.76C8.56197 41.76 8.81197 41.8 9.01863 41.88C9.2253 41.9533 9.40197 42.0533 9.54863 42.18C9.70197 42.3 9.8353 42.4367 9.94863 42.59L9.92863 42.17C9.92197 42.0233 9.95197 41.92 10.0186 41.86C10.092 41.7933 10.2053 41.76 10.3586 41.76C10.4853 41.76 10.5753 41.78 10.6286 41.82C10.6886 41.86 10.7286 41.9167 10.7486 41.99C10.7686 42.0633 10.7786 42.1533 10.7786 42.26V46.12C10.7786 46.2133 10.7686 46.2967 10.7486 46.37C10.7286 46.4433 10.6886 46.4967 10.6286 46.53C10.5686 46.57 10.4753 46.59 10.3486 46.59ZM8.41863 45.76C8.6853 45.76 8.92863 45.69 9.14863 45.55C9.3753 45.41 9.55197 45.2233 9.67863 44.99C9.81197 44.75 9.87863 44.4767 9.87863 44.17C9.87863 43.8567 9.80863 43.5833 9.66863 43.35C9.5353 43.11 9.3553 42.9233 9.12863 42.79C8.90863 42.65 8.6653 42.58 8.39863 42.58C8.0853 42.58 7.81197 42.6533 7.57863 42.8C7.35197 42.94 7.17197 43.13 7.03863 43.37C6.9053 43.61 6.83863 43.8833 6.83863 44.19C6.83863 44.49 6.9053 44.76 7.03863 45C7.17197 45.2333 7.3553 45.42 7.58863 45.56C7.82863 45.6933 8.1053 45.76 8.41863 45.76ZM13.5808 46.65C13.4208 46.65 13.2542 46.6333 13.0808 46.6C12.9075 46.5667 12.7375 46.52 12.5708 46.46C12.4108 46.3933 12.2675 46.3167 12.1408 46.23C12.0208 46.1433 11.9308 46.0467 11.8708 45.94C11.8375 45.8733 11.8175 45.8133 11.8108 45.76C11.8042 45.7 11.8142 45.6433 11.8408 45.59C11.8675 45.5367 11.9075 45.4833 11.9608 45.43C12.0275 45.35 12.0942 45.3133 12.1608 45.32C12.2275 45.32 12.3108 45.3633 12.4108 45.45C12.4842 45.4967 12.5708 45.55 12.6708 45.61C12.7708 45.6633 12.8742 45.7133 12.9808 45.76C13.0875 45.8 13.1942 45.8367 13.3008 45.87C13.4142 45.8967 13.5242 45.91 13.6308 45.91C13.9375 45.91 14.1842 45.8533 14.3708 45.74C14.5575 45.62 14.6508 45.4633 14.6508 45.27C14.6508 45.1567 14.6275 45.06 14.5808 44.98C14.5342 44.9 14.4708 44.8333 14.3908 44.78C14.3108 44.72 14.2208 44.67 14.1208 44.63C14.0208 44.59 13.9075 44.5533 13.7808 44.52C13.6608 44.48 13.5408 44.4433 13.4208 44.41C13.2408 44.3633 13.0642 44.31 12.8908 44.25C12.7175 44.19 12.5608 44.1133 12.4208 44.02C12.2808 43.92 12.1675 43.7967 12.0808 43.65C11.9942 43.4967 11.9508 43.3033 11.9508 43.07C11.9508 42.7967 12.0208 42.56 12.1608 42.36C12.3008 42.16 12.4975 42.0067 12.7508 41.9C13.0042 41.7867 13.3008 41.73 13.6408 41.73C13.7875 41.73 13.9242 41.74 14.0508 41.76C14.1775 41.78 14.2975 41.8133 14.4108 41.86C14.5308 41.9 14.6442 41.95 14.7508 42.01C14.8575 42.0633 14.9608 42.13 15.0608 42.21C15.1808 42.29 15.2442 42.3767 15.2508 42.47C15.2575 42.5633 15.2208 42.66 15.1408 42.76C15.0808 42.8467 15.0142 42.9033 14.9408 42.93C14.8675 42.95 14.7942 42.93 14.7208 42.87C14.6142 42.79 14.5008 42.72 14.3808 42.66C14.2608 42.6 14.1375 42.55 14.0108 42.51C13.8842 42.47 13.7542 42.45 13.6208 42.45C13.4542 42.45 13.3042 42.4767 13.1708 42.53C13.0442 42.5767 12.9442 42.65 12.8708 42.75C12.8042 42.8433 12.7708 42.95 12.7708 43.07C12.7708 43.1767 12.7975 43.2633 12.8508 43.33C12.9108 43.3967 12.9842 43.4533 13.0708 43.5C13.1642 43.5467 13.2708 43.59 13.3908 43.63C13.5175 43.6633 13.6475 43.6967 13.7808 43.73C13.9742 43.7767 14.1708 43.8333 14.3708 43.9C14.5775 43.96 14.7608 44.0433 14.9208 44.15C15.0875 44.25 15.2208 44.3867 15.3208 44.56C15.4275 44.7267 15.4808 44.95 15.4808 45.23C15.4808 45.67 15.3075 46.0167 14.9608 46.27C14.6142 46.5233 14.1542 46.65 13.5808 46.65ZM18.0807 46.6C17.8673 46.6 17.674 46.58 17.5007 46.54C17.334 46.5067 17.1873 46.45 17.0607 46.37C16.934 46.29 16.8273 46.1867 16.7407 46.06C16.6607 45.9333 16.6007 45.78 16.5607 45.6C16.5273 45.42 16.5107 45.21 16.5107 44.97V39.97C16.5107 39.87 16.5173 39.7867 16.5307 39.72C16.5507 39.6533 16.594 39.6033 16.6607 39.57C16.7273 39.53 16.8207 39.51 16.9407 39.51C17.074 39.51 17.1707 39.5267 17.2307 39.56C17.2973 39.5933 17.3407 39.6433 17.3607 39.71C17.3807 39.7767 17.3907 39.8567 17.3907 39.95V44.96C17.3907 45.0933 17.404 45.21 17.4307 45.31C17.4573 45.4033 17.4973 45.4833 17.5507 45.55C17.6107 45.6167 17.684 45.6633 17.7707 45.69C17.8573 45.7167 17.9607 45.73 18.0807 45.73C18.1607 45.73 18.2273 45.74 18.2807 45.76C18.3407 45.78 18.3873 45.82 18.4207 45.88C18.454 45.94 18.4707 46.0333 18.4707 46.16C18.4707 46.2933 18.454 46.3933 18.4207 46.46C18.3873 46.52 18.3407 46.5567 18.2807 46.57C18.2273 46.59 18.1607 46.6 18.0807 46.6ZM21.6532 46.65C21.2532 46.65 20.8965 46.5833 20.5832 46.45C20.2698 46.3167 20.0032 46.1367 19.7832 45.91C19.5698 45.6767 19.4065 45.41 19.2932 45.11C19.1798 44.81 19.1232 44.4867 19.1232 44.14C19.1232 43.68 19.2298 43.27 19.4432 42.91C19.6565 42.55 19.9498 42.2667 20.3232 42.06C20.7032 41.8467 21.1365 41.74 21.6232 41.74C21.9565 41.74 22.2532 41.7933 22.5132 41.9C22.7798 42 23.0065 42.1367 23.1932 42.31C23.3798 42.4833 23.5232 42.6767 23.6232 42.89C23.7232 43.1033 23.7732 43.3167 23.7732 43.53C23.7732 43.87 23.6932 44.11 23.5332 44.25C23.3732 44.3833 23.1765 44.45 22.9432 44.45H20.0532C20.0465 44.7433 20.1232 44.9967 20.2832 45.21C20.4498 45.4167 20.6565 45.5767 20.9032 45.69C21.1565 45.8033 21.4098 45.86 21.6632 45.86C21.8498 45.86 22.0098 45.85 22.1432 45.83C22.2765 45.81 22.3932 45.7833 22.4932 45.75C22.5932 45.7167 22.6798 45.6833 22.7532 45.65C22.8265 45.6167 22.8898 45.5833 22.9432 45.55C23.0032 45.5167 23.0598 45.4933 23.1132 45.48C23.1732 45.4667 23.2298 45.4733 23.2832 45.5C23.3432 45.52 23.3898 45.5633 23.4232 45.63C23.4632 45.6833 23.4898 45.7333 23.5032 45.78C23.5165 45.8267 23.5232 45.8767 23.5232 45.93C23.5232 46.0233 23.4432 46.1267 23.2832 46.24C23.1232 46.3533 22.8998 46.45 22.6132 46.53C22.3332 46.61 22.0132 46.65 21.6532 46.65ZM20.0532 43.86H22.5632C22.6898 43.86 22.7832 43.8433 22.8432 43.81C22.9098 43.7767 22.9432 43.6867 22.9432 43.54C22.9432 43.3533 22.8865 43.1867 22.7732 43.04C22.6598 42.8867 22.5032 42.7633 22.3032 42.67C22.1098 42.5767 21.8865 42.53 21.6332 42.53C21.3398 42.53 21.0698 42.59 20.8232 42.71C20.5832 42.8233 20.3932 42.98 20.2532 43.18C20.1132 43.38 20.0465 43.6067 20.0532 43.86ZM26.3836 46.65C26.2236 46.65 26.0569 46.6333 25.8836 46.6C25.7102 46.5667 25.5402 46.52 25.3736 46.46C25.2136 46.3933 25.0702 46.3167 24.9436 46.23C24.8236 46.1433 24.7336 46.0467 24.6736 45.94C24.6402 45.8733 24.6202 45.8133 24.6136 45.76C24.6069 45.7 24.6169 45.6433 24.6436 45.59C24.6702 45.5367 24.7102 45.4833 24.7636 45.43C24.8302 45.35 24.8969 45.3133 24.9636 45.32C25.0302 45.32 25.1136 45.3633 25.2136 45.45C25.2869 45.4967 25.3736 45.55 25.4736 45.61C25.5736 45.6633 25.6769 45.7133 25.7836 45.76C25.8902 45.8 25.9969 45.8367 26.1036 45.87C26.2169 45.8967 26.3269 45.91 26.4336 45.91C26.7402 45.91 26.9869 45.8533 27.1736 45.74C27.3602 45.62 27.4536 45.4633 27.4536 45.27C27.4536 45.1567 27.4302 45.06 27.3836 44.98C27.3369 44.9 27.2736 44.8333 27.1936 44.78C27.1136 44.72 27.0236 44.67 26.9236 44.63C26.8236 44.59 26.7102 44.5533 26.5836 44.52C26.4636 44.48 26.3436 44.4433 26.2236 44.41C26.0436 44.3633 25.8669 44.31 25.6936 44.25C25.5202 44.19 25.3636 44.1133 25.2236 44.02C25.0836 43.92 24.9702 43.7967 24.8836 43.65C24.7969 43.4967 24.7536 43.3033 24.7536 43.07C24.7536 42.7967 24.8236 42.56 24.9636 42.36C25.1036 42.16 25.3002 42.0067 25.5536 41.9C25.8069 41.7867 26.1036 41.73 26.4436 41.73C26.5902 41.73 26.7269 41.74 26.8536 41.76C26.9802 41.78 27.1002 41.8133 27.2136 41.86C27.3336 41.9 27.4469 41.95 27.5536 42.01C27.6602 42.0633 27.7636 42.13 27.8636 42.21C27.9836 42.29 28.0469 42.3767 28.0536 42.47C28.0602 42.5633 28.0236 42.66 27.9436 42.76C27.8836 42.8467 27.8169 42.9033 27.7436 42.93C27.6702 42.95 27.5969 42.93 27.5236 42.87C27.4169 42.79 27.3036 42.72 27.1836 42.66C27.0636 42.6 26.9402 42.55 26.8136 42.51C26.6869 42.47 26.5569 42.45 26.4236 42.45C26.2569 42.45 26.1069 42.4767 25.9736 42.53C25.8469 42.5767 25.7469 42.65 25.6736 42.75C25.6069 42.8433 25.5736 42.95 25.5736 43.07C25.5736 43.1767 25.6002 43.2633 25.6536 43.33C25.7136 43.3967 25.7869 43.4533 25.8736 43.5C25.9669 43.5467 26.0736 43.59 26.1936 43.63C26.3202 43.6633 26.4502 43.6967 26.5836 43.73C26.7769 43.7767 26.9736 43.8333 27.1736 43.9C27.3802 43.96 27.5636 44.0433 27.7236 44.15C27.8902 44.25 28.0236 44.3867 28.1236 44.56C28.2302 44.7267 28.2836 44.95 28.2836 45.23C28.2836 45.67 28.1102 46.0167 27.7636 46.27C27.4169 46.5233 26.9569 46.65 26.3836 46.65ZM30.8269 46.65C30.6669 46.65 30.5002 46.6333 30.3269 46.6C30.1536 46.5667 29.9836 46.52 29.8169 46.46C29.6569 46.3933 29.5136 46.3167 29.3869 46.23C29.2669 46.1433 29.1769 46.0467 29.1169 45.94C29.0836 45.8733 29.0636 45.8133 29.0569 45.76C29.0502 45.7 29.0602 45.6433 29.0869 45.59C29.1136 45.5367 29.1536 45.4833 29.2069 45.43C29.2736 45.35 29.3402 45.3133 29.4069 45.32C29.4736 45.32 29.5569 45.3633 29.6569 45.45C29.7302 45.4967 29.8169 45.55 29.9169 45.61C30.0169 45.6633 30.1202 45.7133 30.2269 45.76C30.3336 45.8 30.4402 45.8367 30.5469 45.87C30.6602 45.8967 30.7702 45.91 30.8769 45.91C31.1836 45.91 31.4302 45.8533 31.6169 45.74C31.8036 45.62 31.8969 45.4633 31.8969 45.27C31.8969 45.1567 31.8736 45.06 31.8269 44.98C31.7802 44.9 31.7169 44.8333 31.6369 44.78C31.5569 44.72 31.4669 44.67 31.3669 44.63C31.2669 44.59 31.1536 44.5533 31.0269 44.52C30.9069 44.48 30.7869 44.4433 30.6669 44.41C30.4869 44.3633 30.3102 44.31 30.1369 44.25C29.9636 44.19 29.8069 44.1133 29.6669 44.02C29.5269 43.92 29.4136 43.7967 29.3269 43.65C29.2402 43.4967 29.1969 43.3033 29.1969 43.07C29.1969 42.7967 29.2669 42.56 29.4069 42.36C29.5469 42.16 29.7436 42.0067 29.9969 41.9C30.2502 41.7867 30.5469 41.73 30.8869 41.73C31.0336 41.73 31.1702 41.74 31.2969 41.76C31.4236 41.78 31.5436 41.8133 31.6569 41.86C31.7769 41.9 31.8902 41.95 31.9969 42.01C32.1036 42.0633 32.2069 42.13 32.3069 42.21C32.4269 42.29 32.4902 42.3767 32.4969 42.47C32.5036 42.5633 32.4669 42.66 32.3869 42.76C32.3269 42.8467 32.2602 42.9033 32.1869 42.93C32.1136 42.95 32.0402 42.93 31.9669 42.87C31.8602 42.79 31.7469 42.72 31.6269 42.66C31.5069 42.6 31.3836 42.55 31.2569 42.51C31.1302 42.47 31.0002 42.45 30.8669 42.45C30.7002 42.45 30.5502 42.4767 30.4169 42.53C30.2902 42.5767 30.1902 42.65 30.1169 42.75C30.0502 42.8433 30.0169 42.95 30.0169 43.07C30.0169 43.1767 30.0436 43.2633 30.0969 43.33C30.1569 43.3967 30.2302 43.4533 30.3169 43.5C30.4102 43.5467 30.5169 43.59 30.6369 43.63C30.7636 43.6633 30.8936 43.6967 31.0269 43.73C31.2202 43.7767 31.4169 43.8333 31.6169 43.9C31.8236 43.96 32.0069 44.0433 32.1669 44.15C32.3336 44.25 32.4669 44.3867 32.5669 44.56C32.6736 44.7267 32.7269 44.95 32.7269 45.23C32.7269 45.67 32.5536 46.0167 32.2069 46.27C31.8602 46.5233 31.4002 46.65 30.8269 46.65ZM38.3858 48.56C38.1525 48.56 37.9292 48.5333 37.7158 48.48C37.5025 48.4267 37.3158 48.3567 37.1558 48.27C36.9958 48.1833 36.8692 48.09 36.7758 47.99C36.6825 47.89 36.6358 47.7967 36.6358 47.71C36.6358 47.6433 36.6458 47.5867 36.6658 47.54C36.6858 47.5 36.7158 47.4567 36.7558 47.41C36.8225 47.3433 36.8758 47.2967 36.9158 47.27C36.9558 47.2433 37.0092 47.23 37.0758 47.23C37.1425 47.23 37.2092 47.2567 37.2758 47.31C37.3425 47.37 37.4225 47.4333 37.5158 47.5C37.6158 47.5733 37.7358 47.6367 37.8758 47.69C38.0225 47.75 38.2025 47.78 38.4158 47.78C38.6358 47.78 38.8325 47.7467 39.0058 47.68C39.1792 47.6133 39.3292 47.5133 39.4558 47.38C39.5825 47.2467 39.6792 47.0833 39.7458 46.89C39.8125 46.7033 39.8458 46.49 39.8458 46.25L39.8258 42.09C39.8325 41.9633 39.8692 41.8733 39.9358 41.82C40.0092 41.7667 40.1225 41.74 40.2758 41.74C40.4025 41.74 40.4925 41.76 40.5458 41.8C40.6058 41.8333 40.6425 41.8833 40.6558 41.95C40.6758 42.01 40.6858 42.0867 40.6858 42.18V46.32C40.6858 46.6733 40.6292 46.9867 40.5158 47.26C40.4025 47.54 40.2425 47.7767 40.0358 47.97C39.8292 48.1633 39.5858 48.31 39.3058 48.41C39.0258 48.51 38.7192 48.56 38.3858 48.56ZM38.3558 46.49C38.0358 46.49 37.7392 46.4333 37.4658 46.32C37.1992 46.2 36.9625 46.0333 36.7558 45.82C36.5558 45.6067 36.3992 45.3567 36.2858 45.07C36.1792 44.7833 36.1258 44.47 36.1258 44.13C36.1258 43.79 36.1792 43.4767 36.2858 43.19C36.3992 42.9033 36.5558 42.6533 36.7558 42.44C36.9558 42.2267 37.1892 42.0633 37.4558 41.95C37.7292 41.83 38.0258 41.77 38.3458 41.77C38.6392 41.77 38.9058 41.8267 39.1458 41.94C39.3858 42.0533 39.5892 42.2167 39.7558 42.43C39.9292 42.6367 40.0592 42.8833 40.1458 43.17C40.2325 43.4567 40.2758 43.7767 40.2758 44.13C40.2758 44.61 40.1992 45.0267 40.0458 45.38C39.8925 45.7333 39.6725 46.0067 39.3858 46.2C39.0992 46.3933 38.7558 46.49 38.3558 46.49ZM38.4058 45.67C38.6725 45.67 38.9125 45.6033 39.1258 45.47C39.3392 45.3367 39.5092 45.1533 39.6358 44.92C39.7625 44.6867 39.8258 44.4167 39.8258 44.11C39.8258 43.81 39.7625 43.5467 39.6358 43.32C39.5092 43.0867 39.3358 42.9067 39.1158 42.78C38.9025 42.6533 38.6592 42.59 38.3858 42.59C38.1125 42.59 37.8692 42.6533 37.6558 42.78C37.4425 42.9067 37.2758 43.0867 37.1558 43.32C37.0425 43.5467 36.9858 43.8133 36.9858 44.12C36.9858 44.4267 37.0458 44.6967 37.1658 44.93C37.2858 45.1567 37.4525 45.3367 37.6658 45.47C37.8792 45.6033 38.1258 45.67 38.4058 45.67ZM44.1218 46.66C43.7951 46.66 43.4818 46.5967 43.1818 46.47C42.8884 46.3433 42.6251 46.17 42.3918 45.95C42.1584 45.7233 41.9751 45.46 41.8418 45.16C41.7084 44.86 41.6418 44.5333 41.6418 44.18C41.6418 43.8333 41.7051 43.5133 41.8318 43.22C41.9584 42.92 42.1351 42.6567 42.3618 42.43C42.5884 42.2033 42.8484 42.0267 43.1418 41.9C43.4418 41.7667 43.7618 41.7 44.1018 41.7C44.5618 41.7 44.9751 41.81 45.3418 42.03C45.7151 42.2433 46.0118 42.5367 46.2318 42.91C46.4518 43.2833 46.5618 43.7033 46.5618 44.17C46.5618 44.5367 46.4951 44.8733 46.3618 45.18C46.2284 45.48 46.0484 45.74 45.8218 45.96C45.5951 46.18 45.3351 46.3533 45.0418 46.48C44.7484 46.6 44.4418 46.66 44.1218 46.66ZM44.1018 45.79C44.3818 45.79 44.6418 45.72 44.8818 45.58C45.1218 45.44 45.3151 45.2467 45.4618 45C45.6084 44.7533 45.6818 44.4733 45.6818 44.16C45.6818 43.8467 45.6118 43.57 45.4718 43.33C45.3384 43.09 45.1518 42.9033 44.9118 42.77C44.6718 42.6367 44.3984 42.57 44.0918 42.57C43.7984 42.57 43.5318 42.64 43.2918 42.78C43.0584 42.92 42.8684 43.11 42.7218 43.35C42.5818 43.59 42.5118 43.8633 42.5118 44.17C42.5118 44.49 42.5851 44.7733 42.7318 45.02C42.8784 45.26 43.0718 45.45 43.3118 45.59C43.5584 45.7233 43.8218 45.79 44.1018 45.79ZM49.1375 46.65C48.9775 46.65 48.8108 46.6333 48.6375 46.6C48.4641 46.5667 48.2941 46.52 48.1275 46.46C47.9675 46.3933 47.8241 46.3167 47.6975 46.23C47.5775 46.1433 47.4875 46.0467 47.4275 45.94C47.3941 45.8733 47.3741 45.8133 47.3675 45.76C47.3608 45.7 47.3708 45.6433 47.3975 45.59C47.4241 45.5367 47.4641 45.4833 47.5175 45.43C47.5841 45.35 47.6508 45.3133 47.7175 45.32C47.7841 45.32 47.8675 45.3633 47.9675 45.45C48.0408 45.4967 48.1275 45.55 48.2275 45.61C48.3275 45.6633 48.4308 45.7133 48.5375 45.76C48.6441 45.8 48.7508 45.8367 48.8575 45.87C48.9708 45.8967 49.0808 45.91 49.1875 45.91C49.4941 45.91 49.7408 45.8533 49.9275 45.74C50.1141 45.62 50.2075 45.4633 50.2075 45.27C50.2075 45.1567 50.1841 45.06 50.1375 44.98C50.0908 44.9 50.0275 44.8333 49.9475 44.78C49.8675 44.72 49.7775 44.67 49.6775 44.63C49.5775 44.59 49.4641 44.5533 49.3375 44.52C49.2175 44.48 49.0975 44.4433 48.9775 44.41C48.7975 44.3633 48.6208 44.31 48.4475 44.25C48.2741 44.19 48.1175 44.1133 47.9775 44.02C47.8375 43.92 47.7241 43.7967 47.6375 43.65C47.5508 43.4967 47.5075 43.3033 47.5075 43.07C47.5075 42.7967 47.5775 42.56 47.7175 42.36C47.8575 42.16 48.0541 42.0067 48.3075 41.9C48.5608 41.7867 48.8575 41.73 49.1975 41.73C49.3441 41.73 49.4808 41.74 49.6075 41.76C49.7341 41.78 49.8541 41.8133 49.9675 41.86C50.0875 41.9 50.2008 41.95 50.3075 42.01C50.4141 42.0633 50.5175 42.13 50.6175 42.21C50.7375 42.29 50.8008 42.3767 50.8075 42.47C50.8141 42.5633 50.7775 42.66 50.6975 42.76C50.6375 42.8467 50.5708 42.9033 50.4975 42.93C50.4241 42.95 50.3508 42.93 50.2775 42.87C50.1708 42.79 50.0575 42.72 49.9375 42.66C49.8175 42.6 49.6941 42.55 49.5675 42.51C49.4408 42.47 49.3108 42.45 49.1775 42.45C49.0108 42.45 48.8608 42.4767 48.7275 42.53C48.6008 42.5767 48.5008 42.65 48.4275 42.75C48.3608 42.8433 48.3275 42.95 48.3275 43.07C48.3275 43.1767 48.3541 43.2633 48.4075 43.33C48.4675 43.3967 48.5408 43.4533 48.6275 43.5C48.7208 43.5467 48.8275 43.59 48.9475 43.63C49.0741 43.6633 49.2041 43.6967 49.3375 43.73C49.5308 43.7767 49.7275 43.8333 49.9275 43.9C50.1341 43.96 50.3175 44.0433 50.4775 44.15C50.6441 44.25 50.7775 44.3867 50.8775 44.56C50.9841 44.7267 51.0375 44.95 51.0375 45.23C51.0375 45.67 50.8641 46.0167 50.5175 46.27C50.1708 46.5233 49.7108 46.65 49.1375 46.65ZM53.5808 46.65C53.4208 46.65 53.2542 46.6333 53.0808 46.6C52.9075 46.5667 52.7375 46.52 52.5708 46.46C52.4108 46.3933 52.2675 46.3167 52.1408 46.23C52.0208 46.1433 51.9308 46.0467 51.8708 45.94C51.8375 45.8733 51.8175 45.8133 51.8108 45.76C51.8042 45.7 51.8142 45.6433 51.8408 45.59C51.8675 45.5367 51.9075 45.4833 51.9608 45.43C52.0275 45.35 52.0942 45.3133 52.1608 45.32C52.2275 45.32 52.3108 45.3633 52.4108 45.45C52.4842 45.4967 52.5708 45.55 52.6708 45.61C52.7708 45.6633 52.8742 45.7133 52.9808 45.76C53.0875 45.8 53.1942 45.8367 53.3008 45.87C53.4142 45.8967 53.5242 45.91 53.6308 45.91C53.9375 45.91 54.1842 45.8533 54.3708 45.74C54.5575 45.62 54.6508 45.4633 54.6508 45.27C54.6508 45.1567 54.6275 45.06 54.5808 44.98C54.5342 44.9 54.4708 44.8333 54.3908 44.78C54.3108 44.72 54.2208 44.67 54.1208 44.63C54.0208 44.59 53.9075 44.5533 53.7808 44.52C53.6608 44.48 53.5408 44.4433 53.4208 44.41C53.2408 44.3633 53.0642 44.31 52.8908 44.25C52.7175 44.19 52.5608 44.1133 52.4208 44.02C52.2808 43.92 52.1675 43.7967 52.0808 43.65C51.9942 43.4967 51.9508 43.3033 51.9508 43.07C51.9508 42.7967 52.0208 42.56 52.1608 42.36C52.3008 42.16 52.4975 42.0067 52.7508 41.9C53.0042 41.7867 53.3008 41.73 53.6408 41.73C53.7875 41.73 53.9242 41.74 54.0508 41.76C54.1775 41.78 54.2975 41.8133 54.4108 41.86C54.5308 41.9 54.6442 41.95 54.7508 42.01C54.8575 42.0633 54.9608 42.13 55.0608 42.21C55.1808 42.29 55.2442 42.3767 55.2508 42.47C55.2575 42.5633 55.2208 42.66 55.1408 42.76C55.0808 42.8467 55.0142 42.9033 54.9408 42.93C54.8675 42.95 54.7942 42.93 54.7208 42.87C54.6142 42.79 54.5008 42.72 54.3808 42.66C54.2608 42.6 54.1375 42.55 54.0108 42.51C53.8842 42.47 53.7542 42.45 53.6208 42.45C53.4542 42.45 53.3042 42.4767 53.1708 42.53C53.0442 42.5767 52.9442 42.65 52.8708 42.75C52.8042 42.8433 52.7708 42.95 52.7708 43.07C52.7708 43.1767 52.7975 43.2633 52.8508 43.33C52.9108 43.3967 52.9842 43.4533 53.0708 43.5C53.1642 43.5467 53.2708 43.59 53.3908 43.63C53.5175 43.6633 53.6475 43.6967 53.7808 43.73C53.9742 43.7767 54.1708 43.8333 54.3708 43.9C54.5775 43.96 54.7608 44.0433 54.9208 44.15C55.0875 44.25 55.2208 44.3867 55.3208 44.56C55.4275 44.7267 55.4808 44.95 55.4808 45.23C55.4808 45.67 55.3075 46.0167 54.9608 46.27C54.6142 46.5233 54.1542 46.65 53.5808 46.65ZM57.0507 46.6C56.924 46.6 56.8273 46.58 56.7607 46.54C56.7007 46.5067 56.6607 46.4567 56.6407 46.39C56.6207 46.3233 56.6107 46.2433 56.6107 46.15V42.2C56.6107 42.1067 56.6207 42.0267 56.6407 41.96C56.6607 41.8933 56.7007 41.8433 56.7607 41.81C56.8273 41.7767 56.9273 41.76 57.0607 41.76C57.1873 41.76 57.2807 41.78 57.3407 41.82C57.4007 41.8533 57.4407 41.9033 57.4607 41.97C57.4807 42.0367 57.4907 42.12 57.4907 42.22V46.16C57.4907 46.2533 57.4807 46.3333 57.4607 46.4C57.4407 46.4667 57.3973 46.5167 57.3307 46.55C57.2707 46.5833 57.1773 46.6 57.0507 46.6ZM57.0507 40.56C56.904 40.56 56.794 40.54 56.7207 40.5C56.6473 40.4533 56.5973 40.39 56.5707 40.31C56.5507 40.23 56.5407 40.1367 56.5407 40.03C56.5407 39.9233 56.554 39.8333 56.5807 39.76C56.6073 39.68 56.6573 39.6233 56.7307 39.59C56.804 39.55 56.914 39.53 57.0607 39.53C57.2007 39.53 57.3073 39.55 57.3807 39.59C57.454 39.63 57.5007 39.69 57.5207 39.77C57.5473 39.85 57.5607 39.9433 57.5607 40.05C57.5607 40.1567 57.5473 40.25 57.5207 40.33C57.5007 40.4033 57.454 40.46 57.3807 40.5C57.3073 40.54 57.1973 40.56 57.0507 40.56ZM61.247 46.56C60.9203 46.56 60.6237 46.5 60.357 46.38C60.0903 46.26 59.8637 46.0933 59.677 45.88C59.4903 45.66 59.3437 45.4033 59.237 45.11C59.137 44.8167 59.0903 44.4933 59.097 44.14C59.097 43.7933 59.147 43.4733 59.247 43.18C59.347 42.8867 59.4903 42.6333 59.677 42.42C59.8703 42.2 60.097 42.0333 60.357 41.92C60.6237 41.8 60.9203 41.74 61.247 41.74C61.5537 41.74 61.8403 41.8 62.107 41.92C62.3803 42.04 62.617 42.21 62.817 42.43C63.0237 42.6433 63.1837 42.9 63.297 43.2C63.417 43.5 63.477 43.8233 63.477 44.17C63.477 44.5167 63.417 44.8367 63.297 45.13C63.1837 45.4233 63.0237 45.6767 62.817 45.89C62.617 46.1033 62.3803 46.27 62.107 46.39C61.8403 46.5033 61.5537 46.56 61.247 46.56ZM59.167 48.57C59.0403 48.57 58.9437 48.55 58.877 48.51C58.817 48.4767 58.7737 48.4267 58.747 48.36C58.727 48.2933 58.717 48.2133 58.717 48.12V42.21C58.717 42.1167 58.727 42.0367 58.747 41.97C58.767 41.9033 58.807 41.8533 58.867 41.82C58.9337 41.78 59.0303 41.76 59.157 41.76C59.3037 41.76 59.4103 41.7833 59.477 41.83C59.5503 41.8767 59.5937 41.96 59.607 42.08V48.11C59.6137 48.2033 59.607 48.2833 59.587 48.35C59.567 48.4233 59.5237 48.4767 59.457 48.51C59.397 48.55 59.3003 48.57 59.167 48.57ZM61.117 45.74C61.397 45.74 61.6503 45.6733 61.877 45.54C62.1037 45.4 62.2803 45.21 62.407 44.97C62.5403 44.73 62.607 44.4567 62.607 44.15C62.607 43.8367 62.5403 43.5633 62.407 43.33C62.2803 43.0967 62.1037 42.9167 61.877 42.79C61.657 42.6567 61.4037 42.59 61.117 42.59C60.837 42.59 60.5837 42.6567 60.357 42.79C60.137 42.9233 59.9603 43.1067 59.827 43.34C59.7003 43.5733 59.637 43.8433 59.637 44.15C59.637 44.4567 59.7003 44.73 59.827 44.97C59.9603 45.21 60.137 45.4 60.357 45.54C60.5837 45.6733 60.837 45.74 61.117 45.74Z" fill="#F1F7F6"/>
</svg>
