<svg width="77" height="138" viewBox="0 0 77 138" fill="none" xmlns="http://www.w3.org/2000/svg">
<path d="M29.01 20.273C18.0604 23.3866 9.60568 30.2366 4.47738 40.0618C1.28952 46.289 0.25 50.5097 0.25 57.7056C0.25 73.9655 10.1601 87.873 25.9608 93.6851C32.4751 96.176 43.2168 96.3144 49.4539 94.1002C51.7409 93.2699 54.1664 92.3704 54.8594 92.1629C55.899 91.8169 56.0376 92.4396 56.0376 98.5977C55.9683 108.907 53.1962 113.889 44.88 118.317C36.9797 122.538 35.7323 130.772 42.3159 135.823C51.0479 142.396 69.4127 129.803 74.8875 113.474C76.4121 108.976 76.4814 108.077 76.6894 68.0843C76.828 29.1987 76.8279 27.123 75.5805 24.8397C73.7094 21.4493 70.3136 19.3043 66.7793 19.3043C63.5221 19.3043 59.5026 20.7574 58.1166 22.3488C57.1464 23.5942 54.5822 23.8018 53.612 22.8331C53.1962 22.4871 50.9093 21.5185 48.4837 20.7574C43.3554 19.0968 34.1383 18.8892 29.01 20.273ZM45.9196 37.986C56.6613 41.9991 62.1361 53.9692 58.1166 64.5555C56.3841 69.1913 51.7409 74.3115 47.6521 76.2489C44.6028 77.6327 39.4052 82.5453 39.4052 83.9983C39.4052 84.621 38.9894 84.8286 38.3657 84.621C37.8113 84.3442 37.3262 83.7907 37.3262 83.3064C37.3262 82.1301 31.7128 77.2175 28.8021 75.8337C26.0994 74.5191 21.3176 69.6065 19.5851 66.3545C18.5455 64.4863 18.2683 62.4106 18.2683 57.3596C18.2683 49.8869 19.3079 47.1885 23.951 42.6218C29.6338 36.8789 38.1578 35.1492 45.9196 37.986Z" fill="#121418"/>
<path d="M62.9719 0.829962C60.8235 1.93702 58.1208 5.88093 58.1208 8.02586C58.1208 11.9698 62.5561 16.5364 66.2983 16.5364C70.2485 16.5364 74.7531 12.1082 74.7531 8.16424C74.7531 5.88093 72.1196 1.93702 69.902 0.829962C67.6844 -0.277099 65.1895 -0.277099 62.9719 0.829962Z" fill="#121418"/>
<path d="M27.8982 56.2527C27.0666 58.3976 27.9675 59.7814 30.1159 59.989C32.6107 60.2658 33.581 58.7435 32.4721 56.5986C31.5712 55.0764 28.4527 54.7996 27.8982 56.2527Z" fill="#121418"/>
<path d="M36.0144 56.53C35.1135 58.2598 36.3609 60.1279 38.3707 60.1279C39.2716 60.1279 40.3111 59.5744 40.7269 58.9517C41.6278 57.2219 40.3804 55.2845 38.3707 55.2845C37.4698 55.2845 36.3609 55.8381 36.0144 56.53Z" fill="#121418"/>
<path d="M44.2597 56.7376C43.2894 58.5365 44.4676 60.1279 46.7545 60.1279C48.7642 60.1279 49.9424 58.1906 49.0415 56.53C48.1405 54.8002 45.1606 54.9386 44.2597 56.7376Z" fill="#121418"/>
</svg>
