<svg width="412" height="590" viewBox="0 0 412 590" fill="none" xmlns="http://www.w3.org/2000/svg">
<g style="mix-blend-mode:screen" filter="url(#filter0_d_602_15329)">
<path d="M119.056 331.87C119.056 434.886 198.145 506.204 253.508 537.902C95.326 482.431 -7.48264 339.794 0.426275 220.93C8.33519 102.065 63.7038 30.7464 150.696 6.97342C237.687 -16.7996 435.423 22.822 561.959 86.2165C669.006 139.847 633.139 252.627 577.777 284.324C522.414 316.021 411.69 236.778 324.692 220.93C237.694 205.081 119.056 216.49 119.056 331.87Z" fill="#26ADA2"/>
<path d="M153.423 16.9521C194.491 5.72909 263.679 9.25763 339.517 24.0596C414.924 38.7776 495.063 64.2718 557.325 95.4648C607.22 120.462 622.681 158.213 620.448 192.829C618.146 228.533 597.047 261.371 572.637 275.347C561.764 281.571 547.258 282.858 528.793 279.813C510.396 276.78 489.486 269.692 466.873 260.826C455.618 256.413 444.101 251.625 432.369 246.756C420.673 241.901 408.772 236.969 396.914 232.342C373.264 223.113 349.291 214.897 326.546 210.753C282.183 202.671 228.632 201.274 185.598 217.511C163.91 225.694 144.532 238.5 130.606 257.52C116.635 276.601 108.712 301.176 108.712 331.87C108.712 397.133 138.734 449.921 174.972 488.687C134.222 463.141 99.6513 431.452 72.8623 396.855C29.4923 340.846 7.00305 277.9 10.748 221.616C14.6079 163.606 29.9901 118.06 54.2959 84.3408C78.5238 50.7302 112.05 28.2586 153.423 16.9521Z" stroke="#7AF8EB" stroke-width="20.6885"/>
</g>
<defs>
<filter id="filter0_d_602_15329" x="0" y="0" width="662.033" height="589.623" filterUnits="userSpaceOnUse" color-interpolation-filters="sRGB">
<feFlood flood-opacity="0" result="BackgroundImageFix"/>
<feColorMatrix in="SourceAlpha" type="matrix" values="0 0 0 0 0 0 0 0 0 0 0 0 0 0 0 0 0 0 127 0" result="hardAlpha"/>
<feOffset dx="20.6885" dy="41.3771"/>
<feGaussianBlur stdDeviation="5.17213"/>
<feComposite in2="hardAlpha" operator="out"/>
<feColorMatrix type="matrix" values="0 0 0 0 0.85098 0 0 0 0 0.466667 0 0 0 0 0.341176 0 0 0 0.24 0"/>
<feBlend mode="normal" in2="BackgroundImageFix" result="effect1_dropShadow_602_15329"/>
<feBlend mode="normal" in="SourceGraphic" in2="effect1_dropShadow_602_15329" result="shape"/>
</filter>
</defs>
</svg>
