<svg width="20" height="20" viewBox="0 0 20 20" fill="none" xmlns="http://www.w3.org/2000/svg">
<path d="M10.9375 10.0006C10.9375 10.186 10.8825 10.3672 10.7795 10.5214C10.6765 10.6756 10.5301 10.7958 10.3588 10.8667C10.1875 10.9377 9.99896 10.9562 9.8171 10.9201C9.63525 10.8839 9.4682 10.7946 9.33709 10.6635C9.20598 10.5324 9.11669 10.3653 9.08051 10.1835C9.04434 10.0016 9.06291 9.81311 9.13386 9.64181C9.20482 9.4705 9.32498 9.32408 9.47915 9.22107C9.63332 9.11806 9.81458 9.06307 10 9.06307C10.2486 9.06307 10.4871 9.16185 10.6629 9.33766C10.8387 9.51348 10.9375 9.75193 10.9375 10.0006ZM6.5625 9.06307C6.37708 9.06307 6.19582 9.11806 6.04165 9.22107C5.88748 9.32408 5.76732 9.4705 5.69636 9.64181C5.62541 9.81311 5.60684 10.0016 5.64301 10.1835C5.67919 10.3653 5.76848 10.5324 5.89959 10.6635C6.0307 10.7946 6.19774 10.8839 6.3796 10.9201C6.56146 10.9562 6.74996 10.9377 6.92127 10.8667C7.09257 10.7958 7.23899 10.6756 7.342 10.5214C7.44502 10.3672 7.5 10.186 7.5 10.0006C7.5 9.75193 7.40123 9.51348 7.22541 9.33766C7.0496 9.16185 6.81114 9.06307 6.5625 9.06307ZM13.4375 9.06307C13.2521 9.06307 13.0708 9.11806 12.9167 9.22107C12.7625 9.32408 12.6423 9.4705 12.5714 9.64181C12.5004 9.81311 12.4818 10.0016 12.518 10.1835C12.5542 10.3653 12.6435 10.5324 12.7746 10.6635C12.9057 10.7946 13.0727 10.8839 13.2546 10.9201C13.4365 10.9562 13.625 10.9377 13.7963 10.8667C13.9676 10.7958 14.114 10.6756 14.217 10.5214C14.32 10.3672 14.375 10.186 14.375 10.0006C14.375 9.75193 14.2762 9.51348 14.1004 9.33766C13.9246 9.16185 13.6861 9.06307 13.4375 9.06307ZM18.125 10.0006C18.1253 11.4033 17.7624 12.7823 17.0717 14.0032C16.381 15.2241 15.3859 16.2454 14.1834 16.9676C12.9808 17.6899 11.6118 18.0885 10.2095 18.1246C8.80719 18.1608 7.41942 17.8333 6.18125 17.174L3.52109 18.0607C3.30085 18.1342 3.0645 18.1448 2.83854 18.0915C2.61257 18.0382 2.40593 17.923 2.24176 17.7588C2.07759 17.5946 1.96239 17.388 1.90906 17.162C1.85573 16.9361 1.86639 16.6997 1.93984 16.4795L2.82656 13.8193C2.24699 12.7297 1.92328 11.5223 1.88 10.2888C1.83672 9.05538 2.075 7.82828 2.57677 6.70068C3.07854 5.57307 3.8306 4.57459 4.77587 3.78104C5.72114 2.98748 6.83477 2.4197 8.03224 2.12079C9.22971 1.82188 10.4795 1.7997 11.6868 2.05594C12.8942 2.31218 14.0272 2.84009 15.0001 3.59961C15.9729 4.35914 16.7599 5.3303 17.3014 6.4394C17.8428 7.54849 18.1245 8.76637 18.125 10.0006ZM16.875 10.0006C16.8747 8.94598 16.6318 7.9056 16.1651 6.9599C15.6983 6.01421 15.0203 5.18857 14.1834 4.54685C13.3466 3.90513 12.3733 3.46454 11.3389 3.25916C10.3045 3.05378 9.23671 3.08912 8.21815 3.36245C7.1996 3.63577 6.25757 4.13976 5.46496 4.83541C4.67235 5.53106 4.0504 6.39973 3.64724 7.37422C3.24407 8.3487 3.07048 9.40287 3.13992 10.4552C3.20935 11.5075 3.51994 12.5297 4.04766 13.4428C4.09195 13.5194 4.11945 13.6046 4.12834 13.6927C4.13723 13.7808 4.1273 13.8697 4.09922 13.9537L3.125 16.8756L6.04688 15.9014C6.11052 15.8797 6.17729 15.8686 6.24453 15.8685C6.3543 15.8687 6.46208 15.8978 6.55703 15.9529C7.60219 16.5576 8.78817 16.8764 9.99566 16.8772C11.2031 16.8779 12.3895 16.5606 13.4354 15.9573C14.4814 15.3539 15.3499 14.4857 15.9537 13.44C16.5575 12.3943 16.8753 11.2081 16.875 10.0006Z" fill="#A3A9A6"/>
</svg>
