<svg width="18" height="32" viewBox="0 0 18 32" fill="none" xmlns="http://www.w3.org/2000/svg">
<path d="M15.541 2.85254C15.6641 2.85243 15.9263 2.76272 16.1904 2.50488C16.4459 2.25533 16.5289 2.0181 16.5352 1.91113C16.532 1.89781 16.5243 1.86623 16.5039 1.81543C16.4675 1.72492 16.408 1.61317 16.3301 1.49707C16.2525 1.38156 16.1669 1.27764 16.0869 1.19824C16.0478 1.15949 16.014 1.13064 15.9873 1.11035C15.9648 1.09325 15.9517 1.08537 15.9492 1.08398C15.7072 0.964561 15.4485 0.964207 15.2061 1.08105C15.2004 1.08454 15.1885 1.09188 15.1709 1.10547C15.1432 1.12679 15.1079 1.15699 15.0674 1.19727C14.9852 1.27901 14.8972 1.38474 14.8174 1.50098C14.7371 1.61802 14.6766 1.72892 14.6396 1.81641C14.6255 1.85007 14.6176 1.87426 14.6133 1.88867C14.6237 2.00931 14.7133 2.25311 14.96 2.50586C15.2268 2.77933 15.4676 2.85254 15.541 2.85254ZM9.63379 20.5449C9.23835 20.7679 8.84773 20.6854 8.6582 20.623L8.5918 20.6016L8.52832 20.5703C8.34013 20.4774 8.16731 20.3415 8.03125 20.1768C7.94878 20.0769 7.84188 19.9191 7.78027 19.7129C7.7754 19.7073 7.77134 19.6998 7.76562 19.6934C7.66903 19.5853 7.5161 19.437 7.32715 19.2734C6.93157 18.931 6.51294 18.6372 6.2959 18.5352L6.28809 18.5312C5.80932 18.3011 5.26986 17.8364 4.83984 17.3994C4.40244 16.955 3.95194 16.4105 3.68359 15.9189C3.29636 15.2311 3.24611 14.4997 3.24609 13.3398C3.24609 12.444 3.30555 11.6982 3.57324 11.0117C3.84726 10.3092 4.29964 9.76808 4.88379 9.2002C6.51025 7.58283 8.922 7.1189 11.083 7.89941L11.0898 7.90234C14.1203 9.02141 15.6935 12.3741 14.543 15.3691C14.2837 16.0522 13.8308 16.7223 13.3271 17.2764C12.8246 17.829 12.2094 18.3347 11.5752 18.6318L11.5674 18.6357L11.5596 18.6387L11.3711 18.7422C11.1549 18.8767 10.8661 19.0982 10.5908 19.3545C10.4165 19.5167 10.2797 19.6634 10.1953 19.7705C10.1879 19.7799 10.1825 19.7892 10.1768 19.7969C10.1204 20.0567 9.9711 20.3547 9.63379 20.5449ZM9.71777 19.373C9.71775 19.3367 9.715 19.3025 9.71094 19.2705C9.71406 19.3033 9.71776 19.3374 9.71777 19.373ZM14.1201 22.9365C14.1114 24.2109 13.9353 25.2968 13.4043 26.2275C12.8664 27.1703 12.0354 27.8306 10.9639 28.3945H10.9648C10.2453 28.7746 9.95903 29.2607 9.9043 29.626C9.85394 29.9623 9.9688 30.3898 10.4912 30.7891C10.7297 30.9665 11.0888 31.0618 11.6182 30.9736C12.1535 30.8844 12.7935 30.6149 13.46 30.1631C14.7982 29.2557 16.0537 27.7428 16.6211 26.0703L16.6221 26.0664C16.7067 25.8196 16.754 25.6711 16.793 25.4404C16.8351 25.191 16.8705 24.8257 16.8975 24.166C16.9245 23.5045 16.9421 22.5854 16.9561 21.249L16.9922 15.8281C17.0085 11.298 17.0165 8.93682 16.9844 7.6377C16.9527 6.35774 16.8759 6.28557 16.8574 6.26074C16.5729 5.75137 16.0868 5.48257 15.6543 5.48242C15.4026 5.48242 15.0854 5.54179 14.7979 5.64258C14.6579 5.69167 14.542 5.74444 14.457 5.79297C14.364 5.84611 14.3447 5.87336 14.3613 5.85449L14.3584 5.85352C14.0167 6.25539 13.5302 6.40177 13.1816 6.43555C12.8746 6.46526 12.3807 6.43526 11.9805 6.12402C11.9788 6.12323 11.9774 6.12194 11.9756 6.12109C11.9271 6.09774 11.8525 6.06462 11.7559 6.02539C11.5636 5.94738 11.3128 5.85643 11.0547 5.77637L11.0459 5.77344C10.5675 5.62039 9.82786 5.51794 9.03418 5.49902C8.33945 5.48248 7.6861 5.53192 7.21387 5.62988L7.02344 5.6748C4.70992 6.32833 2.95097 7.74419 1.87695 9.77344C1.19994 11.0806 0.993164 11.9056 0.993164 13.4199C0.993194 16.76 3.04134 19.6364 6.38867 20.8535L6.40039 20.8574C7.02575 21.0938 7.91874 21.237 8.85352 21.252C9.79027 21.2669 10.6623 21.1517 11.248 20.9463C11.7293 20.7736 12.3153 20.5601 12.5391 20.4902V20.4893C12.5434 20.4878 12.5494 20.4867 12.5566 20.4844C12.5604 20.4832 12.5639 20.4815 12.5674 20.4805V20.4814C12.6932 20.4413 13.121 20.3246 13.542 20.6016C13.9532 20.8721 14.0338 21.314 14.0557 21.4297C14.116 21.7494 14.1201 22.2596 14.1201 22.9297V22.9365Z" fill="url(#paint0_linear_1325_620)" stroke="#7AF8EB" stroke-width="1.98701"/>
<path d="M6.5057 13.0825C6.31003 13.5813 6.52201 13.9032 7.0275 13.9514C7.61452 14.0158 7.84281 13.6618 7.58191 13.163C7.36993 12.809 6.63615 12.7446 6.5057 13.0825Z" fill="url(#paint1_linear_1325_620)"/>
<path d="M8.41573 13.1457C8.20375 13.548 8.49727 13.9824 8.97015 13.9824C9.18213 13.9824 9.42672 13.8537 9.52456 13.7089C9.73654 13.3066 9.44302 12.8561 8.97015 12.8561C8.75816 12.8561 8.49727 12.9848 8.41573 13.1457Z" fill="url(#paint2_linear_1325_620)"/>
<path d="M10.3558 13.194C10.1275 13.6123 10.4047 13.9824 10.9428 13.9824C11.4157 13.9824 11.6929 13.5319 11.4809 13.1457C11.2689 12.7434 10.5678 12.7756 10.3558 13.194Z" fill="url(#paint3_linear_1325_620)"/>
<defs>
<linearGradient id="paint0_linear_1325_620" x1="9" y1="32" x2="9" y2="-6.10352e-05" gradientUnits="userSpaceOnUse">
<stop stop-color="#14F1D9"/>
<stop offset="1" stop-color="#A0F9F1"/>
</linearGradient>
<linearGradient id="paint1_linear_1325_620" x1="7.06124" y1="13.959" x2="7.06124" y2="12.8605" gradientUnits="userSpaceOnUse">
<stop stop-color="#14F1D9"/>
<stop offset="1" stop-color="#A0F9F1"/>
</linearGradient>
<linearGradient id="paint2_linear_1325_620" x1="8.97015" y1="13.9824" x2="8.97015" y2="12.8561" gradientUnits="userSpaceOnUse">
<stop stop-color="#14F1D9"/>
<stop offset="1" stop-color="#A0F9F1"/>
</linearGradient>
<linearGradient id="paint3_linear_1325_620" x1="10.9143" y1="13.9824" x2="10.9143" y2="12.8614" gradientUnits="userSpaceOnUse">
<stop stop-color="#14F1D9"/>
<stop offset="1" stop-color="#A0F9F1"/>
</linearGradient>
</defs>
</svg>
