<svg width="18" height="18" viewBox="0 0 18 18" fill="none" xmlns="http://www.w3.org/2000/svg">
<path d="M9.9375 9.00009C9.9375 9.18551 9.88252 9.36676 9.7795 9.52093C9.67649 9.6751 9.53007 9.79527 9.35876 9.86622C9.18746 9.93718 8.99896 9.95575 8.8171 9.91957C8.63525 9.8834 8.4682 9.79411 8.33709 9.663C8.20598 9.53189 8.11669 9.36484 8.08051 9.18298C8.04434 9.00113 8.06291 8.81263 8.13386 8.64132C8.20482 8.47001 8.32498 8.3236 8.47915 8.22058C8.63332 8.11757 8.81458 8.06259 9 8.06259C9.24864 8.06259 9.4871 8.16136 9.66291 8.33717C9.83873 8.51299 9.9375 8.75144 9.9375 9.00009ZM5.5625 8.06259C5.37708 8.06259 5.19582 8.11757 5.04165 8.22058C4.88748 8.3236 4.76732 8.47001 4.69636 8.64132C4.62541 8.81263 4.60684 9.00113 4.64301 9.18298C4.67919 9.36484 4.76848 9.53189 4.89959 9.663C5.0307 9.79411 5.19774 9.8834 5.3796 9.91957C5.56146 9.95575 5.74996 9.93718 5.92127 9.86622C6.09257 9.79527 6.23899 9.6751 6.342 9.52093C6.44502 9.36676 6.5 9.18551 6.5 9.00009C6.5 8.75144 6.40123 8.51299 6.22541 8.33717C6.0496 8.16136 5.81114 8.06259 5.5625 8.06259ZM12.4375 8.06259C12.2521 8.06259 12.0708 8.11757 11.9167 8.22058C11.7625 8.3236 11.6423 8.47001 11.5714 8.64132C11.5004 8.81263 11.4818 9.00113 11.518 9.18298C11.5542 9.36484 11.6435 9.53189 11.7746 9.663C11.9057 9.79411 12.0727 9.8834 12.2546 9.91957C12.4365 9.95575 12.625 9.93718 12.7963 9.86622C12.9676 9.79527 13.114 9.6751 13.217 9.52093C13.32 9.36676 13.375 9.18551 13.375 9.00009C13.375 8.75144 13.2762 8.51299 13.1004 8.33717C12.9246 8.16136 12.6861 8.06259 12.4375 8.06259ZM17.125 9.00009C17.1253 10.4028 16.7624 11.7818 16.0717 13.0027C15.381 14.2236 14.3859 15.2449 13.1834 15.9671C11.9808 16.6894 10.6118 17.088 9.20948 17.1242C7.80719 17.1603 6.41942 16.8328 5.18125 16.1735L2.52109 17.0602C2.30085 17.1337 2.0645 17.1444 1.83854 17.091C1.61257 17.0377 1.40593 16.9225 1.24176 16.7583C1.07759 16.5942 0.962386 16.3875 0.909061 16.1615C0.855735 15.9356 0.866394 15.6992 0.939844 15.479L1.82656 12.8188C1.24699 11.7292 0.923279 10.5218 0.879998 9.28834C0.836717 8.0549 1.075 6.8278 1.57677 5.70019C2.07854 4.57258 2.8306 3.57411 3.77587 2.78055C4.72114 1.98699 5.83477 1.41921 7.03224 1.1203C8.22971 0.821393 9.47953 0.799215 10.6868 1.05545C11.8942 1.31169 13.0272 1.8396 14.0001 2.59912C14.9729 3.35865 15.7599 4.32981 16.3014 5.43891C16.8428 6.548 17.1245 7.76588 17.125 9.00009ZM15.875 9.00009C15.8747 7.94549 15.6318 6.90511 15.1651 5.95942C14.6983 5.01373 14.0203 4.18808 13.1834 3.54636C12.3466 2.90464 11.3733 2.46405 10.3389 2.25867C9.30449 2.05329 8.23671 2.08863 7.21815 2.36196C6.1996 2.63529 5.25757 3.13927 4.46496 3.83492C3.67235 4.53058 3.0504 5.39925 2.64724 6.37373C2.24407 7.34821 2.07048 8.40238 2.13992 9.45469C2.20935 10.507 2.51994 11.5292 3.04766 12.4423C3.09195 12.5189 3.11945 12.6041 3.12834 12.6922C3.13723 12.7803 3.1273 12.8693 3.09922 12.9532L2.125 15.8751L5.04688 14.9009C5.11052 14.8792 5.17729 14.8681 5.24453 14.8681C5.3543 14.8682 5.46208 14.8973 5.55703 14.9524C6.60219 15.5571 7.78817 15.8759 8.99566 15.8767C10.2031 15.8774 11.3895 15.5602 12.4354 14.9568C13.4814 14.3534 14.3499 13.4852 14.9537 12.4395C15.5575 11.3938 15.8753 10.2076 15.875 9.00009Z" fill="#A3A9A6"/>
</svg>
