<svg width="12" height="8" viewBox="0 0 12 8" fill="none" xmlns="http://www.w3.org/2000/svg">
<path d="M11.1496 5.38186C11.2237 5.47078 11.2596 5.58546 11.2494 5.70078C11.2391 5.8161 11.1836 5.92265 11.0949 5.9971C10.1455 6.7835 9.29787 7.06295 8.52459 7.06295C7.50849 7.06295 6.62037 6.58116 5.79404 6.13327C4.40771 5.38131 3.2106 4.73163 1.4699 6.17374C1.42602 6.21263 1.37478 6.2423 1.31921 6.261C1.26364 6.2797 1.20488 6.28704 1.14642 6.28258C1.08796 6.27812 1.03099 6.26196 0.978899 6.23505C0.926808 6.20814 0.880657 6.17104 0.843188 6.12594C0.805718 6.08085 0.777695 6.02868 0.760783 5.97254C0.743871 5.9164 0.738416 5.85744 0.744741 5.79915C0.751066 5.74086 0.769042 5.68444 0.797601 5.63323C0.826161 5.58203 0.864721 5.53709 0.910991 5.50108C3.10779 3.68163 4.75662 4.57577 6.21185 5.36546C7.59818 6.11741 8.79529 6.76655 10.536 5.32444C10.6252 5.25113 10.7397 5.21602 10.8546 5.22678C10.9695 5.23753 11.0756 5.29328 11.1496 5.38186ZM1.4699 2.67702C3.2106 1.23491 4.40771 1.88405 5.79404 2.636C6.62037 3.08444 7.50849 3.56569 8.52459 3.56569C9.29787 3.56569 10.1455 3.28624 11.0949 2.49983C11.1412 2.46382 11.1797 2.41888 11.2083 2.36768C11.2368 2.31647 11.2548 2.26005 11.2611 2.20176C11.2675 2.14347 11.262 2.08451 11.2451 2.02837C11.2282 1.97223 11.2002 1.92006 11.1627 1.87497C11.1252 1.82987 11.0791 1.79277 11.027 1.76586C10.9749 1.73895 10.9179 1.72279 10.8595 1.71833C10.801 1.71387 10.7422 1.72121 10.6867 1.73991C10.6311 1.75861 10.5799 1.78828 10.536 1.82717C8.79529 3.26928 7.59818 2.6196 6.21185 1.86764C4.75662 1.0785 3.10779 0.183815 0.910991 2.00327C0.828835 2.07914 0.778849 2.18358 0.771302 2.29516C0.763755 2.40673 0.799219 2.51696 0.870409 2.6032C0.9416 2.68944 1.04311 2.74515 1.15409 2.75887C1.26508 2.7726 1.3771 2.74331 1.46716 2.67702H1.4699Z" fill="#A3A9A6"/>
</svg>
