<svg width="9" height="11" viewBox="0 0 9 11" fill="none" xmlns="http://www.w3.org/2000/svg">
<path d="M8.68133 3.35969L6.05633 0.734688C6.02148 0.699875 5.98011 0.67227 5.93458 0.653449C5.88906 0.634628 5.84028 0.624961 5.79102 0.625H1.29102C1.0921 0.625 0.901338 0.704018 0.760686 0.84467C0.620033 0.985322 0.541016 1.17609 0.541016 1.375V9.625C0.541016 9.82391 0.620033 10.0147 0.760686 10.1553C0.901338 10.296 1.0921 10.375 1.29102 10.375H8.04102C8.23993 10.375 8.43069 10.296 8.57135 10.1553C8.712 10.0147 8.79102 9.82391 8.79102 9.625V3.625C8.79105 3.57574 8.78139 3.52695 8.76257 3.48143C8.74375 3.43591 8.71614 3.39454 8.68133 3.35969ZM6.16602 1.90516L7.51086 3.25H6.16602V1.90516ZM8.04102 9.625H1.29102V1.375H5.41602V3.625C5.41602 3.72446 5.45552 3.81984 5.52585 3.89016C5.59618 3.96049 5.69156 4 5.79102 4H8.04102V9.625Z" fill="#D6D8D3"/>
</svg>
