<svg width="16" height="15" viewBox="0 0 16 15" fill="none" xmlns="http://www.w3.org/2000/svg">
<path d="M15.8331 6.76533L10.1187 0.678519C10.0388 0.593342 9.93705 0.535309 9.82621 0.511759C9.71537 0.488209 9.60046 0.5002 9.49602 0.546215C9.39157 0.59223 9.30229 0.670202 9.23945 0.77027C9.17661 0.870339 9.14304 0.988009 9.14299 1.1084V4.17844C7.2901 4.34735 5.24363 5.31363 3.56002 6.83457C1.53284 8.6667 0.270676 11.0276 0.00567097 13.4821C-0.0150382 13.673 0.0212866 13.8659 0.109476 14.0334C0.197665 14.201 0.333225 14.3347 0.496864 14.4154C0.660503 14.4962 0.843883 14.5199 1.02091 14.4832C1.19793 14.4465 1.35958 14.3513 1.48284 14.211C2.26857 13.3201 5.06434 10.5026 9.14299 10.2546V13.282C9.14304 13.4024 9.17661 13.5201 9.23945 13.6202C9.30229 13.7202 9.39157 13.7982 9.49602 13.8442C9.60046 13.8902 9.71537 13.9022 9.82621 13.8787C9.93705 13.8551 10.0388 13.7971 10.1187 13.7119L15.8331 7.6251C15.94 7.51099 16 7.35639 16 7.19521C16 7.03404 15.94 6.87944 15.8331 6.76533ZM10.2859 11.8128V9.62994C10.2859 9.46851 10.2257 9.31369 10.1185 9.19954C10.0113 9.08539 9.86598 9.02126 9.71443 9.02126C7.70868 9.02126 5.75507 9.57896 3.90789 10.6799C2.96712 11.2431 2.09058 11.9202 1.2957 12.6977C1.70999 10.8838 2.7543 9.15897 4.29933 7.76281C5.95793 6.26469 7.98225 5.36917 9.71443 5.36917C9.86598 5.36917 10.0113 5.30504 10.1185 5.19089C10.2257 5.07674 10.2859 4.92192 10.2859 4.76049V2.57837L14.621 7.19521L10.2859 11.8128Z" fill="#D6D8D3"/>
</svg>
