<svg width="10" height="10" viewBox="0 0 10 10" fill="none" xmlns="http://www.w3.org/2000/svg">
<path d="M8.41109 2.0261C7.50345 1.12731 6.27735 0.623693 5 0.625003H4.94984C3.66562 0.638216 2.4385 1.15766 1.53508 2.07047C0.631656 2.98328 0.124932 4.21572 0.125 5.5C0.125 7.51563 1.37094 9.20594 3.37625 9.91422C3.60243 9.99396 3.84443 10.0183 4.08195 9.98522C4.31948 9.95213 4.54562 9.86258 4.74139 9.72406C4.93716 9.58554 5.09687 9.40209 5.20711 9.18911C5.31736 8.97613 5.37493 8.73983 5.375 8.5C5.375 8.30109 5.45402 8.11033 5.59467 7.96967C5.73532 7.82902 5.92609 7.75 6.125 7.75H8.29109C8.63135 7.75165 8.96193 7.63687 9.22797 7.42473C9.494 7.21259 9.67947 6.91584 9.75359 6.58375C9.83741 6.21471 9.87815 5.83719 9.875 5.45875C9.87022 4.81819 9.73837 4.18494 9.48708 3.5957C9.2358 3.00647 8.87007 2.47296 8.41109 2.0261ZM9.02047 6.41875C8.98322 6.5842 8.89064 6.73198 8.75801 6.83767C8.62539 6.94335 8.46068 7.00062 8.29109 7H6.125C5.72717 7 5.34564 7.15804 5.06434 7.43934C4.78304 7.72065 4.625 8.10218 4.625 8.5C4.62483 8.6198 4.59596 8.73781 4.54081 8.84416C4.48567 8.95051 4.40585 9.0421 4.30804 9.11127C4.21023 9.18044 4.09728 9.22517 3.97863 9.24172C3.85999 9.25828 3.7391 9.24617 3.62609 9.20641C1.92922 8.60782 0.875 7.1875 0.875 5.5C0.874942 4.41334 1.30368 3.37054 2.06806 2.59817C2.83245 1.82579 3.87073 1.38624 4.95734 1.375H4.99953C6.08618 1.37922 7.12764 1.81037 7.8993 2.57546C8.67097 3.34054 9.11101 4.37827 9.12453 5.46485C9.12732 5.78569 9.09303 6.10578 9.02234 6.41875H9.02047ZM5.5625 3.0625C5.5625 3.17375 5.52951 3.28251 5.4677 3.37501C5.40589 3.46751 5.31804 3.53961 5.21526 3.58219C5.11248 3.62476 4.99938 3.6359 4.89026 3.61419C4.78115 3.59249 4.68092 3.53892 4.60225 3.46025C4.52358 3.38158 4.47001 3.28136 4.44831 3.17224C4.4266 3.06313 4.43774 2.95003 4.48032 2.84724C4.52289 2.74446 4.59499 2.65661 4.68749 2.5948C4.77999 2.53299 4.88875 2.5 5 2.5C5.14918 2.5 5.29226 2.55927 5.39775 2.66476C5.50324 2.77024 5.5625 2.91332 5.5625 3.0625ZM3.5 4.1875C3.5 4.29875 3.46701 4.40751 3.4052 4.50001C3.34339 4.59251 3.25554 4.66461 3.15276 4.70719C3.04998 4.74976 2.93688 4.7609 2.82776 4.73919C2.71865 4.71749 2.61842 4.66392 2.53975 4.58525C2.46109 4.50658 2.40751 4.40636 2.38581 4.29724C2.3641 4.18813 2.37524 4.07503 2.41782 3.97224C2.46039 3.86946 2.53249 3.78161 2.62499 3.7198C2.71749 3.65799 2.82625 3.625 2.9375 3.625C3.08668 3.625 3.22976 3.68427 3.33525 3.78976C3.44074 3.89524 3.5 4.03832 3.5 4.1875ZM3.5 6.8125C3.5 6.92376 3.46701 7.03251 3.4052 7.12501C3.34339 7.21751 3.25554 7.28961 3.15276 7.33219C3.04998 7.37476 2.93688 7.3859 2.82776 7.3642C2.71865 7.34249 2.61842 7.28892 2.53975 7.21025C2.46109 7.13158 2.40751 7.03136 2.38581 6.92224C2.3641 6.81313 2.37524 6.70003 2.41782 6.59724C2.46039 6.49446 2.53249 6.40661 2.62499 6.3448C2.71749 6.28299 2.82625 6.25 2.9375 6.25C3.08668 6.25 3.22976 6.30927 3.33525 6.41476C3.44074 6.52025 3.5 6.66332 3.5 6.8125ZM7.625 4.1875C7.625 4.29875 7.59201 4.40751 7.5302 4.50001C7.46839 4.59251 7.38054 4.66461 7.27776 4.70719C7.17497 4.74976 7.06188 4.7609 6.95276 4.73919C6.84365 4.71749 6.74342 4.66392 6.66475 4.58525C6.58609 4.50658 6.53251 4.40636 6.51081 4.29724C6.4891 4.18813 6.50024 4.07503 6.54282 3.97224C6.58539 3.86946 6.65749 3.78161 6.74999 3.7198C6.84249 3.65799 6.95125 3.625 7.0625 3.625C7.21168 3.625 7.35476 3.68427 7.46025 3.78976C7.56574 3.89524 7.625 4.03832 7.625 4.1875Z" fill="#D6D8D3"/>
</svg>
