<svg width="15" height="16" viewBox="0 0 15 16" fill="none" xmlns="http://www.w3.org/2000/svg">
<path d="M13.75 0.125H1.25C0.918479 0.125 0.600537 0.256696 0.366116 0.491116C0.131696 0.725537 0 1.04348 0 1.375V5.75C0 9.86875 1.99375 12.3648 3.66641 13.7336C5.46797 15.207 7.26016 15.7078 7.33828 15.7281C7.4457 15.7573 7.55898 15.7573 7.66641 15.7281C7.74453 15.7078 9.53438 15.207 11.3383 13.7336C13.0063 12.3648 15 9.86875 15 5.75V1.375C15 1.04348 14.8683 0.725537 14.6339 0.491116C14.3995 0.256696 14.0815 0.125 13.75 0.125ZM13.75 5.75C13.75 8.64609 12.6828 10.9969 10.5781 12.7359C9.66194 13.4904 8.61996 14.0775 7.5 14.4703C6.39469 14.0844 5.36558 13.5077 4.45938 12.7664C2.32969 11.0242 1.25 8.66406 1.25 5.75V1.375H13.75V5.75Z" fill="#A3A9A6"/>
</svg>
