<svg width="19" height="19" viewBox="0 0 19 19" fill="none" xmlns="http://www.w3.org/2000/svg">
<path d="M18.334 11.5V17.5C18.334 17.6989 18.255 17.8897 18.1143 18.0303C17.9737 18.171 17.7829 18.25 17.584 18.25H1.08398C0.885072 18.25 0.694307 18.171 0.553654 18.0303C0.413002 17.8897 0.333984 17.6989 0.333984 17.5V11.5C0.333984 11.3011 0.413002 11.1103 0.553654 10.9697C0.694307 10.829 0.885072 10.75 1.08398 10.75C1.2829 10.75 1.47366 10.829 1.61431 10.9697C1.75497 11.1103 1.83398 11.3011 1.83398 11.5V16.75H16.834V11.5C16.834 11.3011 16.913 11.1103 17.0537 10.9697C17.1943 10.829 17.3851 10.75 17.584 10.75C17.7829 10.75 17.9737 10.829 18.1143 10.9697C18.255 11.1103 18.334 11.3011 18.334 11.5ZM8.80336 12.0306C8.87301 12.1004 8.95573 12.1557 9.04678 12.1934C9.13783 12.2312 9.23542 12.2506 9.33398 12.2506C9.43255 12.2506 9.53014 12.2312 9.62119 12.1934C9.71224 12.1557 9.79496 12.1004 9.86461 12.0306L13.6146 8.28063C13.6843 8.21094 13.7396 8.12822 13.7773 8.03717C13.815 7.94613 13.8344 7.84855 13.8344 7.75C13.8344 7.65145 13.815 7.55387 13.7773 7.46283C13.7396 7.37178 13.6843 7.28906 13.6146 7.21937C13.5449 7.14969 13.4622 7.09442 13.3712 7.0567C13.2801 7.01899 13.1825 6.99958 13.084 6.99958C12.9854 6.99958 12.8879 7.01899 12.7968 7.0567C12.7058 7.09442 12.623 7.14969 12.5534 7.21937L10.084 9.68969V1C10.084 0.801088 10.005 0.610322 9.86432 0.46967C9.72366 0.329018 9.5329 0.25 9.33398 0.25C9.13507 0.25 8.94431 0.329018 8.80365 0.46967C8.663 0.610322 8.58398 0.801088 8.58398 1V9.68969L6.11461 7.21937C5.97388 7.07864 5.78301 6.99958 5.58398 6.99958C5.38496 6.99958 5.19409 7.07864 5.05336 7.21937C4.91263 7.36011 4.83357 7.55098 4.83357 7.75C4.83357 7.94902 4.91263 8.13989 5.05336 8.28063L8.80336 12.0306Z" fill="#F1F7F6"/>
</svg>
