<svg width="16" height="16" viewBox="0 0 16 16" fill="none" xmlns="http://www.w3.org/2000/svg">
<path d="M15.5 10.25V15.25C15.5 15.4158 15.4342 15.5747 15.3169 15.6919C15.1997 15.8092 15.0408 15.875 14.875 15.875H1.125C0.95924 15.875 0.800269 15.8092 0.683058 15.6919C0.565848 15.5747 0.5 15.4158 0.5 15.25V10.25C0.5 10.0842 0.565848 9.92527 0.683058 9.80806C0.800269 9.69085 0.95924 9.625 1.125 9.625C1.29076 9.625 1.44973 9.69085 1.56694 9.80806C1.68415 9.92527 1.75 10.0842 1.75 10.25V14.625H14.25V10.25C14.25 10.0842 14.3158 9.92527 14.4331 9.80806C14.5503 9.69085 14.7092 9.625 14.875 9.625C15.0408 9.625 15.1997 9.69085 15.3169 9.80806C15.4342 9.92527 15.5 10.0842 15.5 10.25ZM7.55781 10.6922C7.61586 10.7503 7.68479 10.7964 7.76066 10.8279C7.83654 10.8593 7.91787 10.8755 8 10.8755C8.08213 10.8755 8.16346 10.8593 8.23934 10.8279C8.31521 10.7964 8.38414 10.7503 8.44219 10.6922L11.5672 7.56719C11.6253 7.50912 11.6713 7.44018 11.7027 7.36431C11.7342 7.28844 11.7503 7.20712 11.7503 7.125C11.7503 7.04288 11.7342 6.96156 11.7027 6.88569C11.6713 6.80982 11.6253 6.74088 11.5672 6.68281C11.5091 6.62474 11.4402 6.57868 11.3643 6.54725C11.2884 6.51583 11.2071 6.49965 11.125 6.49965C11.0429 6.49965 10.9616 6.51583 10.8857 6.54725C10.8098 6.57868 10.7409 6.62474 10.6828 6.68281L8.625 8.74141V1.5C8.625 1.33424 8.55915 1.17527 8.44194 1.05806C8.32473 0.940848 8.16576 0.875 8 0.875C7.83424 0.875 7.67527 0.940848 7.55806 1.05806C7.44085 1.17527 7.375 1.33424 7.375 1.5V8.74141L5.31719 6.68281C5.19991 6.56554 5.04085 6.49965 4.875 6.49965C4.70915 6.49965 4.55009 6.56554 4.43281 6.68281C4.31554 6.80009 4.24965 6.95915 4.24965 7.125C4.24965 7.29085 4.31554 7.44991 4.43281 7.56719L7.55781 10.6922Z" fill="#279DD4"/>
</svg>
