<svg width="14" height="17" viewBox="0 0 14 17" fill="none" xmlns="http://www.w3.org/2000/svg">
<path d="M13.875 7.75049V15.2505C13.875 15.582 13.7433 15.9 13.5089 16.1344C13.2745 16.3688 12.9565 16.5005 12.625 16.5005H1.375C1.04348 16.5005 0.725537 16.3688 0.491116 16.1344C0.256696 15.9 0.125 15.582 0.125 15.2505V7.75049C0.125 7.41897 0.256696 7.10103 0.491116 6.86661C0.725537 6.63219 1.04348 6.50049 1.375 6.50049H3.25C3.41576 6.50049 3.57473 6.56634 3.69194 6.68355C3.80915 6.80076 3.875 6.95973 3.875 7.12549C3.875 7.29125 3.80915 7.45022 3.69194 7.56743C3.57473 7.68464 3.41576 7.75049 3.25 7.75049H1.375V15.2505H12.625V7.75049H10.75C10.5842 7.75049 10.4253 7.68464 10.3081 7.56743C10.1908 7.45022 10.125 7.29125 10.125 7.12549C10.125 6.95973 10.1908 6.80076 10.3081 6.68355C10.4253 6.56634 10.5842 6.50049 10.75 6.50049H12.625C12.9565 6.50049 13.2745 6.63219 13.5089 6.86661C13.7433 7.10103 13.875 7.41897 13.875 7.75049ZM4.31719 4.44268L6.375 2.38409V9.62549C6.375 9.79125 6.44085 9.95022 6.55806 10.0674C6.67527 10.1846 6.83424 10.2505 7 10.2505C7.16576 10.2505 7.32473 10.1846 7.44194 10.0674C7.55915 9.95022 7.625 9.79125 7.625 9.62549V2.38409L9.68281 4.44268C9.80009 4.55996 9.95915 4.62584 10.125 4.62584C10.2909 4.62584 10.4499 4.55996 10.5672 4.44268C10.6845 4.3254 10.7503 4.16634 10.7503 4.00049C10.7503 3.83464 10.6845 3.67558 10.5672 3.5583L7.44219 0.433304C7.38414 0.375194 7.31521 0.329094 7.23934 0.297642C7.16346 0.266189 7.08213 0.25 7 0.25C6.91787 0.25 6.83654 0.266189 6.76066 0.297642C6.68479 0.329094 6.61586 0.375194 6.55781 0.433304L3.43281 3.5583C3.31554 3.67558 3.24965 3.83464 3.24965 4.00049C3.24965 4.16634 3.31554 4.3254 3.43281 4.44268C3.55009 4.55995 3.70915 4.62584 3.875 4.62584C4.04085 4.62584 4.19991 4.55996 4.31719 4.44268Z" fill="#24C937"/>
</svg>
