<svg width="18" height="16" viewBox="0 0 18 16" fill="none" xmlns="http://www.w3.org/2000/svg">
<path d="M0.75 4.24807H3.84375C4.00898 4.89338 4.38428 5.46535 4.91048 5.8738C5.43669 6.28225 6.08387 6.50395 6.75 6.50395C7.41613 6.50395 8.06331 6.28225 8.58952 5.8738C9.11572 5.46535 9.49102 4.89338 9.65625 4.24807H17.25C17.4489 4.24807 17.6397 4.16905 17.7803 4.0284C17.921 3.88775 18 3.69698 18 3.49807C18 3.29916 17.921 3.10839 17.7803 2.96774C17.6397 2.82709 17.4489 2.74807 17.25 2.74807H9.65625C9.49102 2.10276 9.11572 1.53079 8.58952 1.12234C8.06331 0.713889 7.41613 0.492188 6.75 0.492188C6.08387 0.492188 5.43669 0.713889 4.91048 1.12234C4.38428 1.53079 4.00898 2.10276 3.84375 2.74807H0.75C0.551088 2.74807 0.360322 2.82709 0.21967 2.96774C0.0790178 3.10839 0 3.29916 0 3.49807C0 3.69698 0.0790178 3.88775 0.21967 4.0284C0.360322 4.16905 0.551088 4.24807 0.75 4.24807ZM6.75 1.99807C7.04667 1.99807 7.33668 2.08604 7.58335 2.25087C7.83003 2.41569 8.02229 2.64996 8.13582 2.92405C8.24935 3.19813 8.27906 3.49973 8.22118 3.79071C8.1633 4.08168 8.02044 4.34895 7.81066 4.55873C7.60088 4.76851 7.33361 4.91137 7.04264 4.96925C6.75166 5.02713 6.45006 4.99742 6.17597 4.88389C5.90189 4.77036 5.66762 4.5781 5.5028 4.33143C5.33797 4.08475 5.25 3.79474 5.25 3.49807C5.25 3.10025 5.40804 2.71871 5.68934 2.43741C5.97064 2.15611 6.35218 1.99807 6.75 1.99807ZM17.25 11.7481H15.6562C15.491 11.1028 15.1157 10.5308 14.5895 10.1223C14.0633 9.71389 13.4161 9.49219 12.75 9.49219C12.0839 9.49219 11.4367 9.71389 10.9105 10.1223C10.3843 10.5308 10.009 11.1028 9.84375 11.7481H0.75C0.551088 11.7481 0.360322 11.8271 0.21967 11.9677C0.0790178 12.1084 0 12.2992 0 12.4981C0 12.697 0.0790178 12.8877 0.21967 13.0284C0.360322 13.1691 0.551088 13.2481 0.75 13.2481H9.84375C10.009 13.8934 10.3843 14.4653 10.9105 14.8738C11.4367 15.2823 12.0839 15.504 12.75 15.504C13.4161 15.504 14.0633 15.2823 14.5895 14.8738C15.1157 14.4653 15.491 13.8934 15.6562 13.2481H17.25C17.4489 13.2481 17.6397 13.1691 17.7803 13.0284C17.921 12.8877 18 12.697 18 12.4981C18 12.2992 17.921 12.1084 17.7803 11.9677C17.6397 11.8271 17.4489 11.7481 17.25 11.7481ZM12.75 13.9981C12.4533 13.9981 12.1633 13.9101 11.9166 13.7453C11.67 13.5805 11.4777 13.3462 11.3642 13.0721C11.2506 12.798 11.2209 12.4964 11.2788 12.2054C11.3367 11.9145 11.4796 11.6472 11.6893 11.4374C11.8991 11.2276 12.1664 11.0848 12.4574 11.0269C12.7483 10.969 13.0499 10.9987 13.324 11.1123C13.5981 11.2258 13.8324 11.418 13.9972 11.6647C14.162 11.9114 14.25 12.2014 14.25 12.4981C14.25 12.8959 14.092 13.2774 13.8107 13.5587C13.5294 13.84 13.1478 13.9981 12.75 13.9981Z" fill="#6B7A77"/>
</svg>
