<svg width="16" height="16" viewBox="0 0 16 16" fill="none" xmlns="http://www.w3.org/2000/svg">
<path d="M15.5 1.75V9.875C15.5 10.2065 15.3683 10.5245 15.1339 10.7589C14.8995 10.9933 14.5815 11.125 14.25 11.125H5.75859L6.56719 11.9328C6.62526 11.9909 6.67132 12.0598 6.70275 12.1357C6.73417 12.2116 6.75035 12.2929 6.75035 12.375C6.75035 12.4571 6.73417 12.5384 6.70275 12.6143C6.67132 12.6902 6.62526 12.7591 6.56719 12.8172C6.50912 12.8753 6.44018 12.9213 6.36431 12.9527C6.28844 12.9842 6.20712 13.0003 6.125 13.0003C6.04288 13.0003 5.96156 12.9842 5.88569 12.9527C5.80982 12.9213 5.74088 12.8753 5.68281 12.8172L3.80781 10.9422C3.7497 10.8841 3.7036 10.8152 3.67215 10.7393C3.6407 10.6635 3.62451 10.5821 3.62451 10.5C3.62451 10.4179 3.6407 10.3365 3.67215 10.2607C3.7036 10.1848 3.7497 10.1159 3.80781 10.0578L5.68281 8.18281C5.80009 8.06554 5.95915 7.99965 6.125 7.99965C6.29085 7.99965 6.44991 8.06554 6.56719 8.18281C6.68446 8.30009 6.75035 8.45915 6.75035 8.625C6.75035 8.79085 6.68446 8.94991 6.56719 9.06719L5.75859 9.875H14.25V1.75H5.5V2.375C5.5 2.54076 5.43415 2.69973 5.31694 2.81694C5.19973 2.93415 5.04076 3 4.875 3C4.70924 3 4.55027 2.93415 4.43306 2.81694C4.31585 2.69973 4.25 2.54076 4.25 2.375V1.75C4.25 1.41848 4.3817 1.10054 4.61612 0.866116C4.85054 0.631696 5.16848 0.5 5.5 0.5H14.25C14.5815 0.5 14.8995 0.631696 15.1339 0.866116C15.3683 1.10054 15.5 1.41848 15.5 1.75ZM11.125 13C10.9592 13 10.8003 13.0658 10.6831 13.1831C10.5658 13.3003 10.5 13.4592 10.5 13.625V14.25H1.75V6.125H10.2414L9.43281 6.93281C9.31554 7.05009 9.24965 7.20915 9.24965 7.375C9.24965 7.54085 9.31554 7.69991 9.43281 7.81719C9.55009 7.93446 9.70915 8.00035 9.875 8.00035C10.0409 8.00035 10.1999 7.93446 10.3172 7.81719L12.1922 5.94219C12.2503 5.88414 12.2964 5.81521 12.3279 5.73934C12.3593 5.66346 12.3755 5.58213 12.3755 5.5C12.3755 5.41787 12.3593 5.33654 12.3279 5.26066C12.2964 5.18479 12.2503 5.11586 12.1922 5.05781L10.3172 3.18281C10.1999 3.06554 10.0409 2.99965 9.875 2.99965C9.70915 2.99965 9.55009 3.06554 9.43281 3.18281C9.31554 3.30009 9.24965 3.45915 9.24965 3.625C9.24965 3.79085 9.31554 3.94991 9.43281 4.06719L10.2414 4.875H1.75C1.41848 4.875 1.10054 5.0067 0.866116 5.24112C0.631696 5.47554 0.5 5.79348 0.5 6.125V14.25C0.5 14.5815 0.631696 14.8995 0.866116 15.1339C1.10054 15.3683 1.41848 15.5 1.75 15.5H10.5C10.8315 15.5 11.1495 15.3683 11.3839 15.1339C11.6183 14.8995 11.75 14.5815 11.75 14.25V13.625C11.75 13.4592 11.6842 13.3003 11.5669 13.1831C11.4497 13.0658 11.2908 13 11.125 13Z" fill="#C67625"/>
</svg>
