<svg width="72" height="127" viewBox="0 0 72 127" fill="none" xmlns="http://www.w3.org/2000/svg">
<g style="mix-blend-mode:screen" filter="url(#filter0_df_31_212)">
<path d="M9.34241 38.9086C-0.68952 31.2829 -13.6499 49.4994 -18.2479 59.2431C-24.5157 9.67734 10.2218 7.86403 18.1201 7.13568C31.9005 5.86492 54.4858 13.4903 60.7558 31.2831C67.0258 49.076 68.8684 67.3841 48.2159 91.0164C9.34241 135.499 14.3643 112.622 15.6245 97.3709C17.1479 78.9338 24.3901 50.347 9.34241 38.9086Z" fill="#0F5951" fill-opacity="0.16" shape-rendering="crispEdges"/>
<path d="M18.2119 8.13184C24.9026 7.51485 33.8118 9.06046 41.8164 12.96C49.8159 16.857 56.7915 23.0424 59.8125 31.6152C62.9236 40.4438 64.897 49.2949 63.5908 58.8242C62.286 68.3433 57.692 78.6534 47.4629 90.3584C37.7544 101.468 30.8306 108.319 25.9326 112.131C23.4797 114.04 21.5891 115.143 20.1533 115.654C18.7198 116.165 17.8882 116.038 17.3838 115.735C16.8541 115.418 16.4028 114.742 16.1025 113.547C15.8061 112.367 15.6988 110.844 15.7188 109.079C15.7588 105.531 16.3002 101.337 16.6211 97.4531C16.9999 92.8689 17.7329 87.6674 18.3945 82.1865C19.0535 76.7278 19.6366 71.0239 19.6973 65.5264C19.8178 54.5956 17.8784 44.1411 9.94727 38.1123C7.15948 35.9933 4.13235 35.6726 1.16504 36.5391C-1.74982 37.3903 -4.59099 39.3768 -7.17969 41.8379C-11.3876 45.8384 -15.116 51.2724 -17.6191 55.8232C-19.7086 33.4623 -12.9131 21.8452 -4.77246 15.6719C3.85626 9.12853 14.2292 8.4991 18.2119 8.13184Z" stroke="#0E9186" stroke-width="2" shape-rendering="crispEdges"/>
</g>
<defs>
<filter id="filter0_df_31_212" x="-26" y="0" width="98" height="127" filterUnits="userSpaceOnUse" color-interpolation-filters="sRGB">
<feFlood flood-opacity="0" result="BackgroundImageFix"/>
<feColorMatrix in="SourceAlpha" type="matrix" values="0 0 0 0 0 0 0 0 0 0 0 0 0 0 0 0 0 0 127 0" result="hardAlpha"/>
<feOffset dx="4" dy="8"/>
<feGaussianBlur stdDeviation="1"/>
<feComposite in2="hardAlpha" operator="out"/>
<feColorMatrix type="matrix" values="0 0 0 0 0.0588235 0 0 0 0 0.34902 0 0 0 0 0.317647 0 0 0 0.24 0"/>
<feBlend mode="normal" in2="BackgroundImageFix" result="effect1_dropShadow_31_212"/>
<feBlend mode="normal" in="SourceGraphic" in2="effect1_dropShadow_31_212" result="shape"/>
<feGaussianBlur stdDeviation="3.5" result="effect2_foregroundBlur_31_212"/>
</filter>
</defs>
</svg>
