<svg width="11" height="9" viewBox="0 0 11 9" fill="none" xmlns="http://www.w3.org/2000/svg">
<path d="M9.45703 1.5H1.95703C1.85758 1.5 1.76219 1.46049 1.69187 1.39016C1.62154 1.31984 1.58203 1.22446 1.58203 1.125C1.58203 1.02554 1.62154 0.930161 1.69187 0.859835C1.76219 0.789509 1.85758 0.75 1.95703 0.75H8.33203C8.43149 0.75 8.52687 0.710491 8.5972 0.640165C8.66752 0.569839 8.70703 0.474456 8.70703 0.375C8.70703 0.275544 8.66752 0.180161 8.5972 0.109835C8.52687 0.0395089 8.43149 0 8.33203 0H1.95703C1.65866 0 1.37251 0.118526 1.16154 0.329505C0.950558 0.540483 0.832031 0.826631 0.832031 1.125V7.125C0.832031 7.42337 0.950558 7.70952 1.16154 7.9205C1.37251 8.13147 1.65866 8.25 1.95703 8.25H9.45703C9.65594 8.25 9.84671 8.17098 9.98736 8.03033C10.128 7.88968 10.207 7.69891 10.207 7.5V2.25C10.207 2.05109 10.128 1.86032 9.98736 1.71967C9.84671 1.57902 9.65594 1.5 9.45703 1.5ZM9.45703 7.5H1.95703C1.85758 7.5 1.76219 7.46049 1.69187 7.39017C1.62154 7.31984 1.58203 7.22446 1.58203 7.125V2.18578C1.70244 2.22846 1.82928 2.25019 1.95703 2.25H9.45703V7.5ZM7.20703 4.6875C7.20703 4.57625 7.24002 4.46749 7.30183 4.37499C7.36364 4.28249 7.45149 4.21039 7.55427 4.16782C7.65706 4.12524 7.77015 4.1141 7.87927 4.13581C7.98838 4.15751 8.08861 4.21109 8.16728 4.28975C8.24595 4.36842 8.29952 4.46865 8.32122 4.57776C8.34293 4.68688 8.33179 4.79998 8.28921 4.90276C8.24664 5.00554 8.17454 5.09339 8.08204 5.1552C7.98954 5.21701 7.88078 5.25 7.76953 5.25C7.62035 5.25 7.47727 5.19074 7.37178 5.08525C7.26629 4.97976 7.20703 4.83668 7.20703 4.6875Z" fill="#D6D8D3"/>
</svg>
