<svg width="17" height="18" viewBox="0 0 17 18" fill="none" xmlns="http://www.w3.org/2000/svg">
<path d="M16.2742 4.91251C16.4653 4.29626 16.5265 3.64711 16.4542 3.00599C16.3819 2.36487 16.1775 1.7457 15.8539 1.18751C15.799 1.09248 15.7201 1.01357 15.6251 0.958709C15.53 0.903853 15.4222 0.874986 15.3125 0.87501C14.5845 0.873486 13.8663 1.04225 13.2151 1.36781C12.564 1.69337 11.9981 2.16671 11.5625 2.75001H9.6875C9.25193 2.16671 8.68598 1.69337 8.03485 1.36781C7.38372 1.04225 6.66548 0.873486 5.9375 0.87501C5.82777 0.874986 5.71996 0.903853 5.62492 0.958709C5.52988 1.01357 5.45096 1.09248 5.39609 1.18751C5.07254 1.7457 4.86814 2.36487 4.7958 3.00599C4.72346 3.64711 4.78474 4.29626 4.97578 4.91251C4.58963 5.58651 4.38278 6.34827 4.375 7.12501V7.75001C4.37632 8.80751 4.76021 9.82883 5.4558 10.6254C6.15139 11.4219 7.11169 11.9399 8.15938 12.0836C7.73173 12.6308 7.4996 13.3055 7.5 14V14.625H5.625C5.12772 14.625 4.65081 14.4275 4.29917 14.0758C3.94754 13.7242 3.75 13.2473 3.75 12.75C3.75 12.3396 3.66917 11.9333 3.51212 11.5541C3.35508 11.175 3.12489 10.8305 2.83471 10.5403C2.54453 10.2501 2.20003 10.0199 1.82089 9.86289C1.44174 9.70584 1.03538 9.62501 0.625 9.62501C0.45924 9.62501 0.300269 9.69086 0.183058 9.80807C0.065848 9.92528 0 10.0842 0 10.25C0 10.4158 0.065848 10.5747 0.183058 10.692C0.300269 10.8092 0.45924 10.875 0.625 10.875C1.12228 10.875 1.59919 11.0726 1.95083 11.4242C2.30246 11.7758 2.5 12.2527 2.5 12.75C2.5 13.5788 2.82924 14.3737 3.41529 14.9597C4.00134 15.5458 4.7962 15.875 5.625 15.875H7.5V17.125C7.5 17.2908 7.56585 17.4497 7.68306 17.567C7.80027 17.6842 7.95924 17.75 8.125 17.75C8.29076 17.75 8.44973 17.6842 8.56694 17.567C8.68415 17.4497 8.75 17.2908 8.75 17.125V14C8.75 13.5027 8.94754 13.0258 9.29917 12.6742C9.65081 12.3226 10.1277 12.125 10.625 12.125C11.1223 12.125 11.5992 12.3226 11.9508 12.6742C12.3025 13.0258 12.5 13.5027 12.5 14V17.125C12.5 17.2908 12.5658 17.4497 12.6831 17.567C12.8003 17.6842 12.9592 17.75 13.125 17.75C13.2908 17.75 13.4497 17.6842 13.5669 17.567C13.6842 17.4497 13.75 17.2908 13.75 17.125V14C13.7504 13.3055 13.5183 12.6308 13.0906 12.0836C14.1383 11.9399 15.0986 11.4219 15.7942 10.6254C16.4898 9.82883 16.8737 8.80751 16.875 7.75001V7.12501C16.8672 6.34827 16.6604 5.58651 16.2742 4.91251ZM15.625 7.75001C15.625 8.57881 15.2958 9.37367 14.7097 9.95972C14.1237 10.5458 13.3288 10.875 12.5 10.875H8.75C7.9212 10.875 7.12634 10.5458 6.54029 9.95972C5.95424 9.37367 5.625 8.57881 5.625 7.75001V7.12501C5.63266 6.50003 5.81978 5.89042 6.16406 5.36876C6.22824 5.28417 6.26981 5.18462 6.28485 5.0795C6.29988 4.97439 6.28789 4.86717 6.25 4.76798C6.0872 4.34813 6.00886 3.90029 6.01945 3.45011C6.03004 2.99993 6.12936 2.55627 6.31172 2.14454C6.82322 2.19957 7.31577 2.36901 7.75287 2.6403C8.18997 2.91159 8.5604 3.27779 8.83672 3.71173C8.89303 3.79978 8.97051 3.8723 9.06209 3.92267C9.15368 3.97303 9.25642 3.99962 9.36094 4.00001H11.8883C11.9932 4.00001 12.0964 3.97361 12.1884 3.92323C12.2805 3.87285 12.3583 3.80011 12.4148 3.71173C12.6911 3.27775 13.0615 2.91153 13.4986 2.64023C13.9358 2.36893 14.4283 2.19951 14.9398 2.14454C15.122 2.55637 15.221 3.00009 15.2313 3.45027C15.2417 3.90044 15.163 4.34824 15 4.76798C14.9622 4.86623 14.9496 4.97235 14.9632 5.07672C14.9769 5.18109 15.0164 5.2804 15.0781 5.36564C15.4258 5.8873 15.6157 6.49816 15.625 7.12501V7.75001Z" fill="#F1F7F6"/>
</svg>
