<svg width="253" height="218" viewBox="0 0 253 218" fill="none" xmlns="http://www.w3.org/2000/svg">
<path d="M117.01 20.273C106.06 23.3866 97.6057 30.2366 92.4774 40.0618C89.2895 46.289 88.25 50.5097 88.25 57.7056C88.25 73.9655 98.1601 87.873 113.961 93.6851C120.475 96.176 131.217 96.3144 137.454 94.1002C139.741 93.2699 142.166 92.3704 142.859 92.1629C143.899 91.8169 144.038 92.4396 144.038 98.5977C143.968 108.907 141.196 113.889 132.88 118.317C124.98 122.538 123.732 130.772 130.316 135.823C139.048 142.396 157.413 129.803 162.888 113.474C164.412 108.976 164.481 108.077 164.689 68.0843C164.828 29.1987 164.828 27.123 163.581 24.8397C161.709 21.4493 158.314 19.3043 154.779 19.3043C151.522 19.3043 147.503 20.7574 146.117 22.3488C145.146 23.5942 142.582 23.8018 141.612 22.8331C141.196 22.4871 138.909 21.5185 136.484 20.7574C131.355 19.0968 122.138 18.8892 117.01 20.273ZM133.92 37.986C144.661 41.9991 150.136 53.9692 146.117 64.5555C144.384 69.1913 139.741 74.3115 135.652 76.2489C132.603 77.6327 127.405 82.5453 127.405 83.9983C127.405 84.621 126.989 84.8286 126.366 84.621C125.811 84.3442 125.326 83.7907 125.326 83.3064C125.326 82.1301 119.713 77.2175 116.802 75.8337C114.099 74.5191 109.318 69.6065 107.585 66.3545C106.546 64.4863 106.268 62.4106 106.268 57.3596C106.268 49.8869 107.308 47.1885 111.951 42.6218C117.634 36.8789 126.158 35.1492 133.92 37.986Z" fill="#F1F7F6"/>
<path d="M150.972 0.829956C148.824 1.93703 146.121 5.88094 146.121 8.02586C146.121 11.9698 150.556 16.5364 154.298 16.5364C158.249 16.5364 162.753 12.1081 162.753 8.16425C162.753 5.88092 160.12 1.93703 157.902 0.829956C155.684 -0.2771 153.19 -0.2771 150.972 0.829956Z" fill="#F1F7F6"/>
<path d="M115.898 56.2529C115.067 58.3978 115.968 59.7817 118.116 59.9892C120.611 60.266 121.581 58.7438 120.472 56.5989C119.571 55.0766 116.453 54.7999 115.898 56.2529Z" fill="#F1F7F6"/>
<path d="M124.014 56.5297C123.114 58.2595 124.361 60.1277 126.371 60.1277C127.272 60.1277 128.311 59.5742 128.727 58.9514C129.628 57.2216 128.38 55.2843 126.371 55.2843C125.47 55.2843 124.361 55.8378 124.014 56.5297Z" fill="#F1F7F6"/>
<path d="M132.26 56.7373C131.289 58.5363 132.468 60.1277 134.755 60.1277C136.764 60.1277 137.942 58.1903 137.041 56.5297C136.141 54.7999 133.161 54.9383 132.26 56.7373Z" fill="#F1F7F6"/>
<ellipse cx="126.5" cy="152.255" rx="27.8182" ry="2.73214" fill="#191E1D"/>
<path d="M9.56281 217.4C8.60281 217.4 7.68281 217.28 6.80281 217.04C5.92281 216.827 5.12281 216.533 4.40281 216.16C3.70948 215.787 3.14948 215.387 2.72281 214.96C2.32281 214.533 2.12281 214.133 2.12281 213.76C2.12281 213.387 2.17615 213.067 2.28281 212.8C2.41615 212.533 2.60281 212.267 2.84281 212C3.16281 211.68 3.41615 211.44 3.60281 211.28C3.81615 211.12 4.09615 211.04 4.44281 211.04C4.73615 211.04 5.01615 211.147 5.28281 211.36C5.57615 211.573 5.90948 211.813 6.28281 212.08C6.65615 212.347 7.10948 212.587 7.64281 212.8C8.17615 213.013 8.85615 213.12 9.68281 213.12C10.3761 213.12 11.0161 213 11.6028 212.76C12.1895 212.52 12.6828 212.16 13.0828 211.68C13.5095 211.227 13.8428 210.68 14.0828 210.04C14.3228 209.4 14.4428 208.68 14.4428 207.88L14.4028 191.32C14.4561 190.707 14.6695 190.28 15.0428 190.04C15.4161 189.773 15.9895 189.64 16.7628 189.64C17.4828 189.64 18.0028 189.747 18.3228 189.96C18.6428 190.147 18.8428 190.427 18.9228 190.8C19.0028 191.147 19.0428 191.533 19.0428 191.96V208.16C19.0428 209.627 18.7895 210.933 18.2828 212.08C17.7761 213.227 17.0828 214.187 16.2028 214.96C15.3228 215.76 14.3095 216.36 13.1628 216.76C12.0428 217.187 10.8428 217.4 9.56281 217.4ZM9.12281 208.88C7.86948 208.88 6.69615 208.64 5.60281 208.16C4.53615 207.68 3.58948 207 2.76281 206.12C1.96281 205.24 1.32281 204.227 0.842813 203.08C0.389479 201.907 0.162813 200.64 0.162813 199.28C0.162813 197.947 0.389479 196.707 0.842813 195.56C1.32281 194.413 1.96281 193.4 2.76281 192.52C3.58948 191.64 4.53615 190.96 5.60281 190.48C6.69615 189.973 7.85615 189.72 9.08281 189.72C10.2828 189.72 11.3228 189.96 12.2028 190.44C13.1095 190.893 13.8561 191.547 14.4428 192.4C15.0295 193.253 15.4695 194.267 15.7628 195.44C16.0828 196.613 16.2428 197.907 16.2428 199.32C16.2428 201.267 15.9761 202.96 15.4428 204.4C14.9095 205.84 14.1228 206.947 13.0828 207.72C12.0428 208.493 10.7228 208.88 9.12281 208.88ZM9.56281 204.36C10.4695 204.36 11.2695 204.147 11.9628 203.72C12.6828 203.267 13.2428 202.653 13.6428 201.88C14.0695 201.107 14.2828 200.24 14.2828 199.28C14.2828 198.293 14.0695 197.427 13.6428 196.68C13.2428 195.907 12.6828 195.307 11.9628 194.88C11.2428 194.453 10.4295 194.24 9.52281 194.24C8.61615 194.24 7.80281 194.467 7.08281 194.92C6.38948 195.347 5.84281 195.933 5.44281 196.68C5.04281 197.427 4.84281 198.293 4.84281 199.28C4.84281 200.267 5.04281 201.147 5.44281 201.92C5.86948 202.667 6.42948 203.267 7.12281 203.72C7.84281 204.147 8.65615 204.36 9.56281 204.36ZM39.3159 209.32C38.5426 209.32 37.9693 209.173 37.5959 208.88C37.2226 208.587 37.0359 208.187 37.0359 207.68L37.3159 206.36C37.1026 206.707 36.7426 207.12 36.2359 207.6C35.7293 208.053 35.0626 208.467 34.2359 208.84C33.4093 209.187 32.4093 209.36 31.2359 209.36C29.9826 209.36 28.7959 209.107 27.6759 208.6C26.5826 208.067 25.6093 207.347 24.7559 206.44C23.9293 205.507 23.2626 204.453 22.7559 203.28C22.2759 202.08 22.0359 200.8 22.0359 199.44C22.0359 198.133 22.2759 196.907 22.7559 195.76C23.2626 194.587 23.9426 193.547 24.7959 192.64C25.6493 191.733 26.6226 191.027 27.7159 190.52C28.8359 189.987 30.0093 189.72 31.2359 189.72C32.3293 189.72 33.2493 189.867 33.9959 190.16C34.7693 190.453 35.4226 190.827 35.9559 191.28C36.4893 191.707 36.9293 192.16 37.2759 192.64L37.0359 191.48C37.0359 190.893 37.2226 190.453 37.5959 190.16C37.9693 189.84 38.5559 189.68 39.3559 189.68C40.1026 189.68 40.6359 189.8 40.9559 190.04C41.2759 190.253 41.4759 190.56 41.5559 190.96C41.6359 191.333 41.6759 191.76 41.6759 192.24V206.88C41.6759 207.333 41.6359 207.747 41.5559 208.12C41.4759 208.493 41.2626 208.787 40.9159 209C40.5959 209.213 40.0626 209.32 39.3159 209.32ZM31.9559 204.68C32.8626 204.68 33.6759 204.453 34.3959 204C35.1159 203.547 35.6893 202.933 36.1159 202.16C36.5693 201.36 36.7959 200.48 36.7959 199.52C36.7959 198.48 36.5693 197.573 36.1159 196.8C35.6626 196.027 35.0626 195.427 34.3159 195C33.5959 194.547 32.7826 194.32 31.8759 194.32C30.8893 194.32 30.0093 194.56 29.2359 195.04C28.4626 195.493 27.8493 196.12 27.3959 196.92C26.9693 197.693 26.7559 198.573 26.7559 199.56C26.7559 200.52 26.9826 201.387 27.4359 202.16C27.8893 202.933 28.5026 203.547 29.2759 204C30.0759 204.453 30.9693 204.68 31.9559 204.68ZM52.5294 209.64C51.836 209.64 51.1027 209.56 50.3294 209.4C49.556 209.267 48.8094 209.067 48.0894 208.8C47.3694 208.507 46.7427 208.173 46.2094 207.8C45.7027 207.4 45.3827 206.96 45.2494 206.48C45.1427 206.213 45.1027 205.96 45.1294 205.72C45.156 205.453 45.236 205.187 45.3694 204.92C45.5027 204.627 45.7027 204.333 45.9694 204.04C46.2094 203.747 46.4494 203.587 46.6894 203.56C46.956 203.507 47.2894 203.587 47.6894 203.8C48.036 203.933 48.4094 204.107 48.8094 204.32C49.236 204.533 49.6627 204.747 50.0894 204.96C50.5427 205.173 50.996 205.347 51.4494 205.48C51.9294 205.613 52.396 205.68 52.8494 205.68C53.836 205.68 54.6227 205.52 55.2094 205.2C55.796 204.853 56.0894 204.373 56.0894 203.76C56.0894 203.413 55.996 203.107 55.8094 202.84C55.6227 202.573 55.3694 202.36 55.0494 202.2C54.756 202.013 54.396 201.853 53.9694 201.72C53.5694 201.56 53.1294 201.427 52.6494 201.32C52.196 201.187 51.716 201.04 51.2094 200.88C50.5427 200.693 49.876 200.467 49.2094 200.2C48.5427 199.933 47.9427 199.587 47.4094 199.16C46.9027 198.733 46.4894 198.2 46.1694 197.56C45.8494 196.92 45.6894 196.12 45.6894 195.16C45.6894 193.96 45.9694 192.947 46.5294 192.12C47.116 191.267 47.956 190.613 49.0494 190.16C50.1427 189.707 51.4627 189.48 53.0094 189.48C53.5427 189.48 54.0494 189.52 54.5294 189.6C55.036 189.68 55.516 189.8 55.9694 189.96C56.4494 190.093 56.9027 190.267 57.3294 190.48C57.7827 190.693 58.2094 190.933 58.6094 191.2C59.276 191.573 59.6227 192.013 59.6494 192.52C59.676 193 59.4894 193.52 59.0894 194.08C58.796 194.453 58.5027 194.72 58.2094 194.88C57.916 195.013 57.6094 195.013 57.2894 194.88C56.8627 194.667 56.396 194.44 55.8894 194.2C55.4094 193.933 54.9027 193.707 54.3694 193.52C53.8627 193.333 53.3294 193.24 52.7694 193.24C52.236 193.24 51.756 193.32 51.3294 193.48C50.9027 193.64 50.5827 193.867 50.3694 194.16C50.156 194.453 50.0494 194.8 50.0494 195.2C50.0494 195.573 50.156 195.88 50.3694 196.12C50.5827 196.36 50.8627 196.56 51.2094 196.72C51.556 196.88 51.9694 197.027 52.4494 197.16C52.9294 197.267 53.436 197.373 53.9694 197.48C54.716 197.64 55.476 197.84 56.2494 198.08C57.0227 198.32 57.7294 198.653 58.3694 199.08C59.036 199.507 59.5694 200.08 59.9694 200.8C60.3694 201.493 60.5694 202.4 60.5694 203.52C60.5694 205.467 59.8494 206.973 58.4094 208.04C56.996 209.107 55.036 209.64 52.5294 209.64ZM70.9288 209.4C69.9421 209.4 69.0621 209.333 68.2888 209.2C67.5421 209.067 66.8888 208.84 66.3288 208.52C65.7954 208.2 65.3554 207.773 65.0088 207.24C64.6621 206.68 64.3954 206 64.2088 205.2C64.0488 204.4 63.9688 203.44 63.9688 202.32V183.04C63.9688 182.587 64.0088 182.187 64.0888 181.84C64.1954 181.467 64.4088 181.173 64.7288 180.96C65.0754 180.72 65.6221 180.6 66.3688 180.6C67.1154 180.6 67.6488 180.707 67.9688 180.92C68.3154 181.133 68.5288 181.427 68.6088 181.8C68.7154 182.147 68.7688 182.547 68.7688 183V202.12C68.7688 202.627 68.7954 203.053 68.8488 203.4C68.9288 203.72 69.0488 203.987 69.2088 204.2C69.3954 204.387 69.6221 204.52 69.8888 204.6C70.1821 204.68 70.5288 204.72 70.9288 204.72C71.2754 204.72 71.5821 204.76 71.8488 204.84C72.1421 204.92 72.3688 205.12 72.5287 205.44C72.7154 205.76 72.8088 206.28 72.8088 207C72.8088 207.747 72.7154 208.293 72.5287 208.64C72.3688 208.987 72.1421 209.2 71.8488 209.28C71.5554 209.36 71.2488 209.4 70.9288 209.4ZM85.2094 209.64C83.476 209.64 81.956 209.36 80.6494 208.8C79.3694 208.24 78.2894 207.48 77.4094 206.52C76.556 205.533 75.9027 204.44 75.4494 203.24C75.0227 202.013 74.8094 200.747 74.8094 199.44C74.8094 197.52 75.2494 195.813 76.1294 194.32C77.0094 192.827 78.2227 191.653 79.7694 190.8C81.3427 189.947 83.1427 189.52 85.1694 189.52C86.6094 189.52 87.876 189.747 88.9694 190.2C90.0627 190.653 90.9694 191.253 91.6894 192C92.436 192.72 92.996 193.52 93.3694 194.4C93.7694 195.28 93.9694 196.133 93.9694 196.96C93.9694 198.373 93.6227 199.4 92.9294 200.04C92.2627 200.68 91.4227 201 90.4094 201H79.8494C79.876 201.907 80.156 202.693 80.6894 203.36C81.2494 204.027 81.9427 204.547 82.7694 204.92C83.6227 205.267 84.4894 205.44 85.3694 205.44C86.036 205.44 86.6227 205.4 87.1294 205.32C87.6627 205.24 88.116 205.147 88.4894 205.04C88.8627 204.907 89.1827 204.773 89.4494 204.64C89.7427 204.507 90.0094 204.387 90.2494 204.28C90.4894 204.173 90.716 204.107 90.9294 204.08C91.2227 204.053 91.516 204.12 91.8094 204.28C92.1027 204.44 92.3427 204.72 92.5294 205.12C92.6894 205.387 92.796 205.64 92.8494 205.88C92.9294 206.093 92.9694 206.307 92.9694 206.52C92.9694 207.053 92.6494 207.56 92.0094 208.04C91.3694 208.493 90.4627 208.867 89.2894 209.16C88.1427 209.48 86.7827 209.64 85.2094 209.64ZM79.8494 198.16H88.0494C88.5027 198.16 88.8494 198.093 89.0894 197.96C89.3294 197.8 89.4494 197.48 89.4494 197C89.4494 196.387 89.2627 195.84 88.8894 195.36C88.516 194.853 88.0094 194.467 87.3694 194.2C86.7294 193.907 85.9827 193.76 85.1294 193.76C84.1427 193.76 83.2494 193.96 82.4494 194.36C81.6494 194.733 81.0094 195.253 80.5294 195.92C80.076 196.587 79.8494 197.333 79.8494 198.16ZM104.092 209.64C103.399 209.64 102.665 209.56 101.892 209.4C101.119 209.267 100.372 209.067 99.6519 208.8C98.9319 208.507 98.3052 208.173 97.7719 207.8C97.2652 207.4 96.9452 206.96 96.8119 206.48C96.7052 206.213 96.6652 205.96 96.6919 205.72C96.7185 205.453 96.7985 205.187 96.9319 204.92C97.0652 204.627 97.2652 204.333 97.5319 204.04C97.7719 203.747 98.0119 203.587 98.2519 203.56C98.5185 203.507 98.8519 203.587 99.2519 203.8C99.5985 203.933 99.9719 204.107 100.372 204.32C100.799 204.533 101.225 204.747 101.652 204.96C102.105 205.173 102.559 205.347 103.012 205.48C103.492 205.613 103.959 205.68 104.412 205.68C105.399 205.68 106.185 205.52 106.772 205.2C107.359 204.853 107.652 204.373 107.652 203.76C107.652 203.413 107.559 203.107 107.372 202.84C107.185 202.573 106.932 202.36 106.612 202.2C106.319 202.013 105.959 201.853 105.532 201.72C105.132 201.56 104.692 201.427 104.212 201.32C103.759 201.187 103.279 201.04 102.772 200.88C102.105 200.693 101.439 200.467 100.772 200.2C100.105 199.933 99.5052 199.587 98.9719 199.16C98.4652 198.733 98.0519 198.2 97.7319 197.56C97.4119 196.92 97.2519 196.12 97.2519 195.16C97.2519 193.96 97.5319 192.947 98.0919 192.12C98.6785 191.267 99.5185 190.613 100.612 190.16C101.705 189.707 103.025 189.48 104.572 189.48C105.105 189.48 105.612 189.52 106.092 189.6C106.599 189.68 107.079 189.8 107.532 189.96C108.012 190.093 108.465 190.267 108.892 190.48C109.345 190.693 109.772 190.933 110.172 191.2C110.839 191.573 111.185 192.013 111.212 192.52C111.239 193 111.052 193.52 110.652 194.08C110.359 194.453 110.065 194.72 109.772 194.88C109.479 195.013 109.172 195.013 108.852 194.88C108.425 194.667 107.959 194.44 107.452 194.2C106.972 193.933 106.465 193.707 105.932 193.52C105.425 193.333 104.892 193.24 104.332 193.24C103.799 193.24 103.319 193.32 102.892 193.48C102.465 193.64 102.145 193.867 101.932 194.16C101.719 194.453 101.612 194.8 101.612 195.2C101.612 195.573 101.719 195.88 101.932 196.12C102.145 196.36 102.425 196.56 102.772 196.72C103.119 196.88 103.532 197.027 104.012 197.16C104.492 197.267 104.999 197.373 105.532 197.48C106.279 197.64 107.039 197.84 107.812 198.08C108.585 198.32 109.292 198.653 109.932 199.08C110.599 199.507 111.132 200.08 111.532 200.8C111.932 201.493 112.132 202.4 112.132 203.52C112.132 205.467 111.412 206.973 109.972 208.04C108.559 209.107 106.599 209.64 104.092 209.64ZM122.061 209.64C121.367 209.64 120.634 209.56 119.861 209.4C119.087 209.267 118.341 209.067 117.621 208.8C116.901 208.507 116.274 208.173 115.741 207.8C115.234 207.4 114.914 206.96 114.781 206.48C114.674 206.213 114.634 205.96 114.661 205.72C114.687 205.453 114.767 205.187 114.901 204.92C115.034 204.627 115.234 204.333 115.501 204.04C115.741 203.747 115.981 203.587 116.221 203.56C116.487 203.507 116.821 203.587 117.221 203.8C117.567 203.933 117.941 204.107 118.341 204.32C118.767 204.533 119.194 204.747 119.621 204.96C120.074 205.173 120.527 205.347 120.981 205.48C121.461 205.613 121.927 205.68 122.381 205.68C123.367 205.68 124.154 205.52 124.741 205.2C125.327 204.853 125.621 204.373 125.621 203.76C125.621 203.413 125.527 203.107 125.341 202.84C125.154 202.573 124.901 202.36 124.581 202.2C124.287 202.013 123.927 201.853 123.501 201.72C123.101 201.56 122.661 201.427 122.181 201.32C121.727 201.187 121.247 201.04 120.741 200.88C120.074 200.693 119.407 200.467 118.741 200.2C118.074 199.933 117.474 199.587 116.941 199.16C116.434 198.733 116.021 198.2 115.701 197.56C115.381 196.92 115.221 196.12 115.221 195.16C115.221 193.96 115.501 192.947 116.061 192.12C116.647 191.267 117.487 190.613 118.581 190.16C119.674 189.707 120.994 189.48 122.541 189.48C123.074 189.48 123.581 189.52 124.061 189.6C124.567 189.68 125.047 189.8 125.501 189.96C125.981 190.093 126.434 190.267 126.861 190.48C127.314 190.693 127.741 190.933 128.141 191.2C128.807 191.573 129.154 192.013 129.181 192.52C129.207 193 129.021 193.52 128.621 194.08C128.327 194.453 128.034 194.72 127.741 194.88C127.447 195.013 127.141 195.013 126.821 194.88C126.394 194.667 125.927 194.44 125.421 194.2C124.941 193.933 124.434 193.707 123.901 193.52C123.394 193.333 122.861 193.24 122.301 193.24C121.767 193.24 121.287 193.32 120.861 193.48C120.434 193.64 120.114 193.867 119.901 194.16C119.687 194.453 119.581 194.8 119.581 195.2C119.581 195.573 119.687 195.88 119.901 196.12C120.114 196.36 120.394 196.56 120.741 196.72C121.087 196.88 121.501 197.027 121.981 197.16C122.461 197.267 122.967 197.373 123.501 197.48C124.247 197.64 125.007 197.84 125.781 198.08C126.554 198.32 127.261 198.653 127.901 199.08C128.567 199.507 129.101 200.08 129.501 200.8C129.901 201.493 130.101 202.4 130.101 203.52C130.101 205.467 129.381 206.973 127.941 208.04C126.527 209.107 124.567 209.64 122.061 209.64ZM152.102 217.4C151.142 217.4 150.222 217.28 149.342 217.04C148.462 216.827 147.662 216.533 146.942 216.16C146.249 215.787 145.689 215.387 145.262 214.96C144.862 214.533 144.662 214.133 144.662 213.76C144.662 213.387 144.715 213.067 144.822 212.8C144.955 212.533 145.142 212.267 145.382 212C145.702 211.68 145.955 211.44 146.142 211.28C146.355 211.12 146.635 211.04 146.982 211.04C147.275 211.04 147.555 211.147 147.822 211.36C148.115 211.573 148.449 211.813 148.822 212.08C149.195 212.347 149.649 212.587 150.182 212.8C150.715 213.013 151.395 213.12 152.222 213.12C152.915 213.12 153.555 213 154.142 212.76C154.729 212.52 155.222 212.16 155.622 211.68C156.049 211.227 156.382 210.68 156.622 210.04C156.862 209.4 156.982 208.68 156.982 207.88L156.942 191.32C156.995 190.707 157.209 190.28 157.582 190.04C157.955 189.773 158.529 189.64 159.302 189.64C160.022 189.64 160.542 189.747 160.862 189.96C161.182 190.147 161.382 190.427 161.462 190.8C161.542 191.147 161.582 191.533 161.582 191.96V208.16C161.582 209.627 161.329 210.933 160.822 212.08C160.315 213.227 159.622 214.187 158.742 214.96C157.862 215.76 156.849 216.36 155.702 216.76C154.582 217.187 153.382 217.4 152.102 217.4ZM151.662 208.88C150.409 208.88 149.235 208.64 148.142 208.16C147.075 207.68 146.129 207 145.302 206.12C144.502 205.24 143.862 204.227 143.382 203.08C142.929 201.907 142.702 200.64 142.702 199.28C142.702 197.947 142.929 196.707 143.382 195.56C143.862 194.413 144.502 193.4 145.302 192.52C146.129 191.64 147.075 190.96 148.142 190.48C149.235 189.973 150.395 189.72 151.622 189.72C152.822 189.72 153.862 189.96 154.742 190.44C155.649 190.893 156.395 191.547 156.982 192.4C157.569 193.253 158.009 194.267 158.302 195.44C158.622 196.613 158.782 197.907 158.782 199.32C158.782 201.267 158.515 202.96 157.982 204.4C157.449 205.84 156.662 206.947 155.622 207.72C154.582 208.493 153.262 208.88 151.662 208.88ZM152.102 204.36C153.009 204.36 153.809 204.147 154.502 203.72C155.222 203.267 155.782 202.653 156.182 201.88C156.609 201.107 156.822 200.24 156.822 199.28C156.822 198.293 156.609 197.427 156.182 196.68C155.782 195.907 155.222 195.307 154.502 194.88C153.782 194.453 152.969 194.24 152.062 194.24C151.155 194.24 150.342 194.467 149.622 194.92C148.929 195.347 148.382 195.933 147.982 196.68C147.582 197.427 147.382 198.293 147.382 199.28C147.382 200.267 147.582 201.147 147.982 201.92C148.409 202.667 148.969 203.267 149.662 203.72C150.382 204.147 151.195 204.36 152.102 204.36ZM174.85 209.64C173.57 209.64 172.317 209.4 171.09 208.92C169.89 208.413 168.797 207.707 167.81 206.8C166.85 205.893 166.077 204.827 165.49 203.6C164.93 202.373 164.65 201.027 164.65 199.56C164.65 198.147 164.917 196.827 165.45 195.6C165.984 194.373 166.717 193.293 167.65 192.36C168.584 191.427 169.65 190.707 170.85 190.2C172.077 189.667 173.384 189.4 174.77 189.4C176.637 189.4 178.33 189.853 179.85 190.76C181.37 191.64 182.584 192.84 183.49 194.36C184.397 195.88 184.85 197.6 184.85 199.52C184.85 201.04 184.57 202.427 184.01 203.68C183.45 204.907 182.69 205.973 181.73 206.88C180.77 207.76 179.69 208.44 178.49 208.92C177.317 209.4 176.104 209.64 174.85 209.64ZM174.77 204.92C175.65 204.92 176.49 204.707 177.29 204.28C178.117 203.827 178.784 203.187 179.29 202.36C179.824 201.533 180.09 200.56 180.09 199.44C180.09 198.4 179.85 197.48 179.37 196.68C178.917 195.88 178.29 195.253 177.49 194.8C176.69 194.347 175.77 194.12 174.73 194.12C173.744 194.12 172.85 194.36 172.05 194.84C171.25 195.293 170.61 195.933 170.13 196.76C169.677 197.56 169.45 198.467 169.45 199.48C169.45 200.6 169.704 201.573 170.21 202.4C170.717 203.2 171.37 203.827 172.17 204.28C172.997 204.707 173.864 204.92 174.77 204.92ZM194.834 209.64C194.141 209.64 193.407 209.56 192.634 209.4C191.861 209.267 191.114 209.067 190.394 208.8C189.674 208.507 189.047 208.173 188.514 207.8C188.007 207.4 187.687 206.96 187.554 206.48C187.447 206.213 187.407 205.96 187.434 205.72C187.461 205.453 187.541 205.187 187.674 204.92C187.807 204.627 188.007 204.333 188.274 204.04C188.514 203.747 188.754 203.587 188.994 203.56C189.261 203.507 189.594 203.587 189.994 203.8C190.341 203.933 190.714 204.107 191.114 204.32C191.541 204.533 191.967 204.747 192.394 204.96C192.847 205.173 193.301 205.347 193.754 205.48C194.234 205.613 194.701 205.68 195.154 205.68C196.141 205.68 196.927 205.52 197.514 205.2C198.101 204.853 198.394 204.373 198.394 203.76C198.394 203.413 198.301 203.107 198.114 202.84C197.927 202.573 197.674 202.36 197.354 202.2C197.061 202.013 196.701 201.853 196.274 201.72C195.874 201.56 195.434 201.427 194.954 201.32C194.501 201.187 194.021 201.04 193.514 200.88C192.847 200.693 192.181 200.467 191.514 200.2C190.847 199.933 190.247 199.587 189.714 199.16C189.207 198.733 188.794 198.2 188.474 197.56C188.154 196.92 187.994 196.12 187.994 195.16C187.994 193.96 188.274 192.947 188.834 192.12C189.421 191.267 190.261 190.613 191.354 190.16C192.447 189.707 193.767 189.48 195.314 189.48C195.847 189.48 196.354 189.52 196.834 189.6C197.341 189.68 197.821 189.8 198.274 189.96C198.754 190.093 199.207 190.267 199.634 190.48C200.087 190.693 200.514 190.933 200.914 191.2C201.581 191.573 201.927 192.013 201.954 192.52C201.981 193 201.794 193.52 201.394 194.08C201.101 194.453 200.807 194.72 200.514 194.88C200.221 195.013 199.914 195.013 199.594 194.88C199.167 194.667 198.701 194.44 198.194 194.2C197.714 193.933 197.207 193.707 196.674 193.52C196.167 193.333 195.634 193.24 195.074 193.24C194.541 193.24 194.061 193.32 193.634 193.48C193.207 193.64 192.887 193.867 192.674 194.16C192.461 194.453 192.354 194.8 192.354 195.2C192.354 195.573 192.461 195.88 192.674 196.12C192.887 196.36 193.167 196.56 193.514 196.72C193.861 196.88 194.274 197.027 194.754 197.16C195.234 197.267 195.741 197.373 196.274 197.48C197.021 197.64 197.781 197.84 198.554 198.08C199.327 198.32 200.034 198.653 200.674 199.08C201.341 199.507 201.874 200.08 202.274 200.8C202.674 201.493 202.874 202.4 202.874 203.52C202.874 205.467 202.154 206.973 200.714 208.04C199.301 209.107 197.341 209.64 194.834 209.64ZM212.803 209.64C212.109 209.64 211.376 209.56 210.603 209.4C209.829 209.267 209.083 209.067 208.363 208.8C207.643 208.507 207.016 208.173 206.483 207.8C205.976 207.4 205.656 206.96 205.523 206.48C205.416 206.213 205.376 205.96 205.403 205.72C205.429 205.453 205.509 205.187 205.643 204.92C205.776 204.627 205.976 204.333 206.243 204.04C206.483 203.747 206.723 203.587 206.963 203.56C207.229 203.507 207.563 203.587 207.963 203.8C208.309 203.933 208.683 204.107 209.083 204.32C209.509 204.533 209.936 204.747 210.363 204.96C210.816 205.173 211.269 205.347 211.723 205.48C212.203 205.613 212.669 205.68 213.123 205.68C214.109 205.68 214.896 205.52 215.483 205.2C216.069 204.853 216.363 204.373 216.363 203.76C216.363 203.413 216.269 203.107 216.083 202.84C215.896 202.573 215.643 202.36 215.323 202.2C215.029 202.013 214.669 201.853 214.243 201.72C213.843 201.56 213.403 201.427 212.923 201.32C212.469 201.187 211.989 201.04 211.483 200.88C210.816 200.693 210.149 200.467 209.483 200.2C208.816 199.933 208.216 199.587 207.683 199.16C207.176 198.733 206.763 198.2 206.443 197.56C206.123 196.92 205.963 196.12 205.963 195.16C205.963 193.96 206.243 192.947 206.803 192.12C207.389 191.267 208.229 190.613 209.323 190.16C210.416 189.707 211.736 189.48 213.283 189.48C213.816 189.48 214.323 189.52 214.803 189.6C215.309 189.68 215.789 189.8 216.243 189.96C216.723 190.093 217.176 190.267 217.603 190.48C218.056 190.693 218.483 190.933 218.883 191.2C219.549 191.573 219.896 192.013 219.923 192.52C219.949 193 219.763 193.52 219.363 194.08C219.069 194.453 218.776 194.72 218.483 194.88C218.189 195.013 217.883 195.013 217.563 194.88C217.136 194.667 216.669 194.44 216.163 194.2C215.683 193.933 215.176 193.707 214.643 193.52C214.136 193.333 213.603 193.24 213.043 193.24C212.509 193.24 212.029 193.32 211.603 193.48C211.176 193.64 210.856 193.867 210.643 194.16C210.429 194.453 210.323 194.8 210.323 195.2C210.323 195.573 210.429 195.88 210.643 196.12C210.856 196.36 211.136 196.56 211.483 196.72C211.829 196.88 212.243 197.027 212.723 197.16C213.203 197.267 213.709 197.373 214.243 197.48C214.989 197.64 215.749 197.84 216.523 198.08C217.296 198.32 218.003 198.653 218.643 199.08C219.309 199.507 219.843 200.08 220.243 200.8C220.643 201.493 220.843 202.4 220.843 203.52C220.843 205.467 220.123 206.973 218.683 208.04C217.269 209.107 215.309 209.64 212.803 209.64ZM226.882 209.4C226.162 209.4 225.629 209.28 225.282 209.04C224.936 208.827 224.722 208.547 224.642 208.2C224.562 207.827 224.522 207.413 224.522 206.96V192.08C224.522 191.653 224.562 191.267 224.642 190.92C224.749 190.547 224.962 190.253 225.282 190.04C225.629 189.827 226.176 189.72 226.922 189.72C227.669 189.72 228.202 189.827 228.522 190.04C228.869 190.253 229.082 190.547 229.162 190.92C229.242 191.293 229.282 191.707 229.282 192.16V207C229.282 207.453 229.242 207.867 229.162 208.24C229.082 208.587 228.869 208.867 228.522 209.08C228.202 209.293 227.656 209.4 226.882 209.4ZM226.882 185.84C226.109 185.84 225.536 185.733 225.162 185.52C224.816 185.28 224.589 184.96 224.482 184.56C224.402 184.16 224.362 183.72 224.362 183.24C224.362 182.733 224.402 182.293 224.482 181.92C224.589 181.547 224.829 181.253 225.202 181.04C225.576 180.8 226.149 180.68 226.922 180.68C227.722 180.68 228.296 180.8 228.642 181.04C228.989 181.28 229.216 181.6 229.322 182C229.429 182.373 229.482 182.813 229.482 183.32C229.482 183.773 229.429 184.2 229.322 184.6C229.216 185 228.989 185.307 228.642 185.52C228.296 185.733 227.709 185.84 226.882 185.84ZM243.778 209.12C242.471 209.12 241.298 208.88 240.258 208.4C239.245 207.893 238.378 207.2 237.658 206.32C236.965 205.413 236.431 204.373 236.058 203.2C235.711 202.027 235.538 200.76 235.538 199.4C235.565 198.04 235.765 196.773 236.138 195.6C236.511 194.4 237.045 193.36 237.738 192.48C238.458 191.6 239.325 190.907 240.338 190.4C241.351 189.893 242.498 189.64 243.778 189.64C245.005 189.64 246.151 189.893 247.218 190.4C248.311 190.907 249.271 191.613 250.098 192.52C250.951 193.427 251.618 194.48 252.098 195.68C252.578 196.853 252.818 198.12 252.818 199.48C252.818 200.867 252.578 202.147 252.098 203.32C251.618 204.493 250.965 205.52 250.138 206.4C249.311 207.253 248.351 207.92 247.258 208.4C246.165 208.88 245.005 209.12 243.778 209.12ZM235.778 217.44C235.058 217.44 234.525 217.333 234.178 217.12C233.831 216.907 233.618 216.627 233.538 216.28C233.458 215.933 233.418 215.533 233.418 215.08V192.08C233.418 191.627 233.458 191.227 233.538 190.88C233.618 190.533 233.818 190.253 234.138 190.04C234.485 189.8 235.018 189.68 235.738 189.68C236.431 189.68 236.978 189.787 237.378 190C237.778 190.213 238.045 190.573 238.178 191.08V215.04C238.205 215.493 238.165 215.893 238.058 216.24C237.978 216.613 237.765 216.907 237.418 217.12C237.071 217.333 236.525 217.44 235.778 217.44ZM243.138 204.64C244.071 204.64 244.911 204.427 245.658 204C246.405 203.547 246.991 202.933 247.418 202.16C247.871 201.36 248.098 200.467 248.098 199.48C248.098 198.467 247.871 197.573 247.418 196.8C246.991 196.027 246.405 195.427 245.658 195C244.911 194.547 244.071 194.32 243.138 194.32C242.231 194.32 241.405 194.547 240.658 195C239.911 195.453 239.311 196.067 238.858 196.84C238.431 197.587 238.218 198.467 238.218 199.48C238.218 200.467 238.431 201.36 238.858 202.16C239.311 202.933 239.911 203.547 240.658 204C241.405 204.427 242.231 204.64 243.138 204.64Z" fill="#F1F7F6"/>
</svg>
