<svg width="36" height="35" viewBox="0 0 36 35" fill="none" xmlns="http://www.w3.org/2000/svg">
<g clip-path="url(#clip0_1121_5054)">
<rect x="3.08984" y="0.346436" width="32" height="32" rx="16" transform="rotate(4 3.08984 0.346436)" fill="#7AF8EB"/>
<path d="M21.1075 25.7902C21.0959 25.9555 21.0191 26.1095 20.894 26.2183C20.7689 26.327 20.6058 26.3816 20.4404 26.3701L14.2056 25.9341C14.0403 25.9225 13.8863 25.8458 13.7775 25.7207C13.6688 25.5956 13.6142 25.4324 13.6258 25.267C13.6373 25.1017 13.7141 24.9477 13.8392 24.8389C13.9643 24.7302 14.1275 24.6756 14.2928 24.6871L20.5276 25.1231C20.693 25.1347 20.847 25.2115 20.9557 25.3366C21.0645 25.4617 21.1191 25.6248 21.1075 25.7902ZM24.9224 16.0325C24.8524 17.0721 24.5459 18.0819 24.0262 18.985C23.5064 19.888 22.7873 20.6603 21.9235 21.2431C21.7622 21.3497 21.6274 21.4919 21.5294 21.6586C21.4314 21.8254 21.3728 22.0123 21.3582 22.2052L21.3255 22.6728C21.3024 23.0035 21.1488 23.3115 20.8986 23.529C20.6484 23.7465 20.322 23.8557 19.9913 23.8326L15.0035 23.4838C14.6728 23.4607 14.3648 23.3071 14.1473 23.0569C13.9298 22.8067 13.8206 22.4803 13.8437 22.1496L13.8764 21.682C13.8896 21.4914 13.859 21.3003 13.7868 21.1233C13.7145 20.9464 13.6027 20.7884 13.4599 20.6614C12.6875 19.9681 12.0829 19.1081 11.6919 18.1466C11.301 17.1851 11.1339 16.1472 11.2033 15.1116C11.4427 11.3958 14.6611 8.51248 18.3785 8.68315C19.2945 8.72506 20.1929 8.94978 21.0207 9.34409C21.8486 9.73839 22.5891 10.2943 23.1989 10.9791C23.8087 11.664 24.2753 12.4638 24.5713 13.3317C24.8673 14.1995 24.9867 15.1178 24.9224 16.0325ZM23.6755 15.9453C23.728 15.1969 23.6303 14.4455 23.3881 13.7355C23.1459 13.0254 22.7641 12.3709 22.2652 11.8106C21.7662 11.2503 21.1603 10.7954 20.4829 10.4728C19.8055 10.1502 19.0704 9.96641 18.321 9.93218C15.2765 9.79134 12.6469 12.1504 12.4508 15.191C12.3944 16.038 12.5314 16.8868 12.8515 17.673C13.1715 18.4593 13.6662 19.1625 14.2981 19.7293C14.5821 19.9839 14.8042 20.3 14.9472 20.6536C15.0903 21.0072 15.1506 21.3888 15.1234 21.7692L15.0907 22.2368L20.0785 22.5856L20.1112 22.118C20.1388 21.7365 20.2531 21.3663 20.4455 21.0357C20.6378 20.7051 20.9032 20.4228 21.2212 20.2103C21.9282 19.7333 22.5168 19.1011 22.9421 18.362C23.3675 17.6228 23.6183 16.7962 23.6755 15.9453ZM22.4709 15.1296C22.3723 14.2153 21.996 13.3531 21.3926 12.6591C20.7892 11.9651 19.9877 11.4727 19.0959 11.248C19.0161 11.2288 18.9333 11.2254 18.8522 11.2382C18.7711 11.2509 18.6933 11.2795 18.6233 11.3223C18.5532 11.3651 18.4923 11.4213 18.444 11.4877C18.3956 11.554 18.3609 11.6292 18.3416 11.709C18.3223 11.7888 18.319 11.8717 18.3317 11.9527C18.3445 12.0338 18.3731 12.1116 18.4159 12.1817C18.4587 12.2517 18.5149 12.3126 18.5812 12.361C18.6476 12.4093 18.7228 12.4441 18.8026 12.4634C20.0788 12.7711 21.0979 13.9435 21.2264 15.2525C21.241 15.3994 21.307 15.5365 21.4129 15.6394C21.5188 15.7422 21.6578 15.8043 21.8051 15.8145C21.8403 15.8168 21.8757 15.8164 21.9109 15.8133C22.0758 15.7969 22.2274 15.7157 22.3324 15.5874C22.4374 15.4592 22.4872 15.2946 22.4709 15.1296Z" fill="#0E9186"/>
</g>
<defs>
<clipPath id="clip0_1121_5054">
<rect x="3.08984" y="0.346436" width="32" height="32" rx="16" transform="rotate(4 3.08984 0.346436)" fill="white"/>
</clipPath>
</defs>
</svg>
