<svg width="14" height="16" viewBox="0 0 14 16" fill="none" xmlns="http://www.w3.org/2000/svg">
<path d="M13.7765 14.5398L8.8859 6.85391L13.7117 1.54531C13.8208 1.42228 13.8771 1.2612 13.8682 1.09697C13.8594 0.932746 13.7862 0.778621 13.6645 0.668012C13.5428 0.557404 13.3824 0.499225 13.2181 0.50609C13.0537 0.512956 12.8987 0.584312 12.7867 0.704687L8.18981 5.76094L5.02652 0.789844C4.97012 0.701058 4.89221 0.627946 4.80003 0.57728C4.70785 0.526613 4.60437 0.500033 4.49918 0.5H0.74918C0.637119 0.499946 0.527104 0.530021 0.430655 0.587078C0.334206 0.644135 0.254872 0.726073 0.20096 0.824314C0.147047 0.922555 0.12054 1.03348 0.124212 1.14548C0.127885 1.25749 0.161604 1.36644 0.221837 1.46094L5.11246 9.14609L0.286681 14.4586C0.230327 14.5191 0.186548 14.5902 0.157882 14.6678C0.129216 14.7454 0.116233 14.8279 0.119685 14.9105C0.123138 14.9932 0.142958 15.0743 0.177995 15.1492C0.213032 15.2241 0.262591 15.2914 0.323798 15.347C0.385005 15.4026 0.456644 15.4455 0.534563 15.4733C0.612481 15.501 0.695129 15.513 0.777716 15.5085C0.860303 15.5041 0.941188 15.4833 1.01568 15.4474C1.09017 15.4114 1.15679 15.3611 1.21168 15.2992L5.80856 10.243L8.97184 15.2141C9.02871 15.3021 9.10681 15.3745 9.19896 15.4244C9.29111 15.4744 9.39435 15.5004 9.49918 15.5H13.2492C13.3611 15.5 13.471 15.4699 13.5673 15.4128C13.6637 15.3558 13.7429 15.274 13.7968 15.1759C13.8507 15.0778 13.8772 14.967 13.8737 14.8551C13.8701 14.7432 13.8366 14.6343 13.7765 14.5398ZM9.84215 14.25L1.88746 1.75H4.15309L12.1109 14.25H9.84215Z" fill="#F1F7F6"/>
</svg>
